<mxfile host="Electron" agent="Mozilla/5.0 (Macintosh; Intel Mac OS X 10_15_7) AppleWebKit/537.36 (KHTML, like Gecko) draw.io/28.1.2 Chrome/138.0.7204.243 Electron/37.4.0 Safari/537.36" version="28.1.2">
  <diagram name="Page-1" id="PvPyVt4CXWGLRgwk1zJp">
    <mxGraphModel dx="1763" dy="1303" grid="0" gridSize="10" guides="1" tooltips="1" connect="1" arrows="1" fold="1" page="1" pageScale="1" pageWidth="1100" pageHeight="850" math="0" shadow="0">
      <root>
        <mxCell id="0" />
        <mxCell id="1" parent="0" />
        <mxCell id="Qvlqy7RKEXM_z3_F6WAx-11" value="" style="rounded=0;whiteSpace=wrap;html=1;fillColor=#dae8fc;dashed=1;dashPattern=12 12;fillStyle=hatch;strokeColor=#6c8ebf;movable=0;resizable=0;rotatable=0;deletable=0;editable=0;locked=1;connectable=0;" vertex="1" parent="1">
          <mxGeometry x="10" y="10" width="2180" height="830" as="geometry" />
        </mxCell>
        <mxCell id="Qvlqy7RKEXM_z3_F6WAx-6" value="&amp;nbsp;Fetch JSON every X seconds" style="edgeStyle=orthogonalEdgeStyle;rounded=0;orthogonalLoop=1;jettySize=auto;html=1;" edge="1" parent="1">
          <mxGeometry x="0.0007" relative="1" as="geometry">
            <mxPoint x="275.0588235294117" y="290" as="targetPoint" />
            <mxPoint x="120" y="190" as="sourcePoint" />
            <mxPoint as="offset" />
          </mxGeometry>
        </mxCell>
        <mxCell id="Qvlqy7RKEXM_z3_F6WAx-2" value="Aviation Stack&amp;nbsp;&lt;div&gt;REST API&lt;/div&gt;" style="outlineConnect=0;dashed=0;verticalLabelPosition=bottom;verticalAlign=top;align=center;html=1;shape=mxgraph.aws3.api_gateway;fillColor=#D9A741;gradientColor=none;" vertex="1" parent="1">
          <mxGeometry x="50" y="160" width="50" height="60" as="geometry" />
        </mxCell>
        <mxCell id="Qvlqy7RKEXM_z3_F6WAx-8" style="edgeStyle=orthogonalEdgeStyle;rounded=0;orthogonalLoop=1;jettySize=auto;html=1;" edge="1" parent="1">
          <mxGeometry relative="1" as="geometry">
            <mxPoint x="400" y="334.6" as="targetPoint" />
            <mxPoint x="330" y="334.64" as="sourcePoint" />
          </mxGeometry>
        </mxCell>
        <mxCell id="Qvlqy7RKEXM_z3_F6WAx-7" value="Producer" style="shape=parallelogram;perimeter=parallelogramPerimeter;whiteSpace=wrap;html=1;dashed=0;fillColor=#dae8fc;strokeColor=#6c8ebf;" vertex="1" parent="1">
          <mxGeometry x="220" y="310" width="100" height="50" as="geometry" />
        </mxCell>
        <mxCell id="Qvlqy7RKEXM_z3_F6WAx-10" value="&amp;nbsp;Fetch JSON every 11 seconds" style="edgeStyle=orthogonalEdgeStyle;rounded=0;orthogonalLoop=1;jettySize=auto;html=1;" edge="1" parent="1">
          <mxGeometry relative="1" as="geometry">
            <mxPoint x="120" y="480" as="sourcePoint" />
            <mxPoint x="275.0588235294117" y="380" as="targetPoint" />
          </mxGeometry>
        </mxCell>
        <mxCell id="Qvlqy7RKEXM_z3_F6WAx-9" value="OpenSky&amp;nbsp;&lt;div&gt;REST API&lt;/div&gt;" style="outlineConnect=0;dashed=0;verticalLabelPosition=bottom;verticalAlign=top;align=center;html=1;shape=mxgraph.aws3.api_gateway;fillColor=#D9A741;gradientColor=none;" vertex="1" parent="1">
          <mxGeometry x="50" y="450" width="50" height="60" as="geometry" />
        </mxCell>
        <mxCell id="Qvlqy7RKEXM_z3_F6WAx-12" value="" style="image;sketch=0;aspect=fixed;html=1;points=[];align=center;fontSize=12;image=img/lib/mscae/Docker.svg;imageBackground=default;" vertex="1" parent="1">
          <mxGeometry x="9" y="9" width="109.76" height="90" as="geometry" />
        </mxCell>
        <mxCell id="Qvlqy7RKEXM_z3_F6WAx-38" style="edgeStyle=orthogonalEdgeStyle;rounded=0;orthogonalLoop=1;jettySize=auto;html=1;" edge="1" parent="1">
          <mxGeometry relative="1" as="geometry">
            <mxPoint x="920" y="190" as="targetPoint" />
            <mxPoint x="870" y="190" as="sourcePoint" />
          </mxGeometry>
        </mxCell>
        <mxCell id="Qvlqy7RKEXM_z3_F6WAx-24" value="&amp;nbsp;Aviation Stack&amp;nbsp;&lt;div&gt;Consumer 1&lt;/div&gt;" style="shape=parallelogram;perimeter=parallelogramPerimeter;whiteSpace=wrap;html=1;dashed=0;fillColor=#d5e8d4;strokeColor=#82b366;align=center;size=0.125;" vertex="1" parent="1">
          <mxGeometry x="750" y="165" width="120" height="50" as="geometry" />
        </mxCell>
        <mxCell id="Qvlqy7RKEXM_z3_F6WAx-29" value="OpenSky&lt;div&gt;Consumer&lt;/div&gt;" style="shape=parallelogram;perimeter=parallelogramPerimeter;whiteSpace=wrap;html=1;dashed=0;fillColor=#d5e8d4;strokeColor=#82b366;align=center;size=0.125;" vertex="1" parent="1">
          <mxGeometry x="750" y="455" width="120" height="50" as="geometry" />
        </mxCell>
        <mxCell id="Qvlqy7RKEXM_z3_F6WAx-30" value="" style="group" vertex="1" connectable="0" parent="1">
          <mxGeometry x="410" y="260" width="200" height="140" as="geometry" />
        </mxCell>
        <mxCell id="Qvlqy7RKEXM_z3_F6WAx-20" value="" style="rounded=0;whiteSpace=wrap;html=1;" vertex="1" parent="Qvlqy7RKEXM_z3_F6WAx-30">
          <mxGeometry y="7.649999999999977" width="200" height="132.35" as="geometry" />
        </mxCell>
        <mxCell id="Qvlqy7RKEXM_z3_F6WAx-19" value="" style="shape=image;verticalLabelPosition=bottom;labelBackgroundColor=default;verticalAlign=top;aspect=fixed;imageAspect=0;image=data:image/png,iVBORw0KGgoAAAANSUhEUgAAAyAAAAMgCAYAAADbcAZoAAAAAXNSR0IArs4c6QAAAERlWElmTU0AKgAAAAgAAYdpAAQAAAABAAAAGgAAAAAAA6ABAAMAAAABAAEAAKACAAQAAAABAAADIKADAAQAAAABAAADIAAAAADAlM0/AABAAElEQVR4AezdB5wcZcHH8Z3du9ylJ5fLtYQW6SCISPGlBCK9SlNUkGYFxV5BBAt2BRVEUEBAUUABC9KLCEhRQXoXiNdyCZBedmfe/3PkLtf2bnZn5pmZ3d98CLc7O/OU77TnmeeZZzIZJgQQQAABBBBAAAEEEEAAAQQQQAABBBBAAAEEEEAAAQQQQAABBBBAAAEEEEAAAQQQQAABBBBAAAEEEEAAAQQQQAABBBBAAAEEEEAAAQQQQAABBBBAAAEEEEAAAQQQQAABBBBAAAEEEEAAAQQQQAABBBBAAAEEEEAAAQQQQAABBBBAAAEEEEAAAQQQQAABBBBAAAEEEEAAAQQQQAABBBBAAAEEEEAAAQQQQAABBBBAAAEEEEAAAQQQQAABBBBAAAEEEEAAAQQQQAABBBBAAAEEEEAAAQQQQAABBBBAAAEEEEAAAQQQQAABBBBAAAEEEEAAAQQQQAABBBBAAAEEEEAAAQQQQAABBBBAAAEEEEAAAQQQQAABBBBAAAEEEEAAAQQQQAABBBBAAAEEEEAAAQQQQAABBBBAAAEEEEAAAQQQQAABBBBAAAEEEEAAAQQQQAABBBBAAAEEEEAAAQQQQAABBBBAAAEEEEAAAQQQQAABBBBAAAEEEEAAAQQQQAABBBBAAAEEEEAAAQQQQAABBBBAAAEEEEAAAQQQQAABBBBAAAEEEEAAAQQQQAABBBBAAAEEEEAAAQQQQAABBBBAAAEEEEAAAQQQQAABBBBAAAEEEEAAAQQQQAABBBBAAAEEEEAAAQQQQAABBBBAAAEEEEAAAQQQQAABBBBAAAEEEEAAAQQQQAABBBBAAAEEEEAAAQQQQAABBBBAAAEEEEAAAQQQQAABBBBAAAEEEEAAAQQQQAABBBBAAAEEEEAAAQQQQAABBBBAAAEEEEAAAQQQQAABBBBAAAEEEEAAAQQQQAABBBBAAAEEEEAAAQQQQAABBBBAAAEEEEAAAQQQQAABBBBAAAEEEEAAAQQQQAABBBBAAAEEEEAAAQQQQAABBBBAAAEEEEAAAQQQQAABBBBAAAEEEEAAAQQQQAABBBBAAAEEEEAAAQQQQAABBBBAAAEEEEAAAQQQQAABBBBAAAEEEEAAAQQQQAABBBBAAAEEEEAAAQQQQAABBBBAAAEEEEAAAQQQQAABBBBAAAEEEEAAAQQQQAABBBBAAAEEEEAAAQQQQAABBBBAAAEEEEAAAQQQQAABBBBAAAEEEEAAAQQQQAABBBBAAAEEEEAAAQQQQAABBBBAAAEEEEAAAQQQQAABBBBAAAEEEEAAAQQQQAABBBBAAAEEEEAAAQQQQAABBBBAAAEEEEAAAQQQQAABBBBAAAEEEEAAAQQQQAABBBBAAAEEEEAAAQQQQAABBBBAAAEEEEAAAQQQQAABBBBAAAEEEEAAAQQQQAABBBBAAAEEEEAAAQQQQAABBBBAAAEEEEAAAQQQQAABBBBAAAEEEEAAAQQQQAABBBBAAAEEEEAAAQQQQAABBBBAAAEEEEAAAQQQQAABBBBAAAEEEEAAAQQQQAABBBBAAAEEEEAAAQQQQAABBBBAAAEEEEAAAQQQQAABBBBAAAEEEEAAAQQQQAABBBBAAAEEEEAAAQQQQAABBBBAAAEEEEAAAQQQQAABBBBAAAEEEEAAAQQQQAABBBBAAAEEEEAAAQQQQAABBBBAAAEEEEAAAQQQQAABBBBAAAEEEEAAAQQQQAABBBBAAAEEEEAAAQQQQAABBBBAAAEEEEAAAQQQQAABBBBAAAEEEEAAAQQQQAABBBBAAAEEEEAAAQQQQAABBBBAAAEEEEAAAQQQQAABBBBAAAEEEEAAAQQQQAABBBBAAAEEEEAAAQQQQAABBBBAAAEEEEAAAQQQQAABBBBAAAEEEEAAAQQQQAABBBBAAAEEEEAAAQQQQAABBBBAAAEEEEAAAQQQQAABBBBAAAEEEEAAAQQQQAABBBBAAAEEEEAAAQQQQAABBBBAAAEEEEAAAQQQQAABBBBAAAEEEEAAAQQQQAABBBBAAAEEEEAAAQQQQAABBBBAAAEEEEAAAQQQQAABBBBAAAEEEEAAAQQQQAABBBBAAAEEEEAAAQQQQAABBBBAAAEEEEAAAQQQQAABBBBAAAEEEEAAAQQQQAABBBBAAAEEEEAAAQQQQAABBBBAAAEEEEAAAQQQQAABBBBAAAEEEEAAAQQQQAABBBBAAAEEEEAAAQQQQAABBBBAAAEEEEAAAQQQQAABBBBAAAEEEEAAAQQQQAABBBBAAAEEEEAAAQQQQAABBBBAAAEEEEAAAQQQQAABBBBAAAEEEEAAAQQQQAABBBBAAAEEEEAAAQQQQAABBBBAAAEEEEAAAQQQQAABBBBAAAEEEEAAAQQQQAABBBBAAAEEEEAAAQQQQAABBBBAAAEEEEAAAQQQQAABBBBAAAEEEEAAAQQQQAABBBBAAAEEEEAAAQQQQAABBBBAAAEEEEAAAQQQQAABBBBAAAEEEEAAAQQQQAABBBBAAAEEEEAAAQQQQAABBBBAAAEEEEAAAQQQQAABBBBAAAEEEEAAAQQQQAABBBBAAAEEEEAAAQQQQAABBBBAAAEEEEAAAQQQQAABBBBAAAEEEEAAAQQQQAABBBBAAAEEEEAAAQQQQAABBBBAAAEEEEAAAQQQQAABBBBAAAEEEEAAAQQQQAABBBBAAAEEEEAAAQQQQAABBBBAAAEEEEAAAQQQQAABBBBAAAEEEEAAAQQQQAABBBBAAAEEEEAAAQQQQAABBBBAAAEEEEAAAQQQQAABBBBAAAEEEEAAAQQQQAABBBBAAAEEEEAAAQQQQAABBBBAAAEEEEAAAQQQQAABBBBAAAEEEEAAAQQQQAABBBBAAAEEEEAAAQQQQAABBBBAAAEEEEAAAQQQQAABBBBAAAEEEEAAAQQQQAABBBBAAAEEEEAAAQQQQAABBBBAAAEEEEAAAQQQQAABBBBAAAEEEEAAAQQQQAABBBBAAAEEEEAAAQQQQAABBBBAAAEEEEAAAQQQQAABBBBAAAEEEEAAAQQQQAABBBBAAAEEEEAAAQQQQAABBBBAAAEEEEAAAQQQQAABBBBAAAEEEEAAAQQQQAABBBBAAAEEEEAAAQQQQAABBBBAAAEEEEAAAQQQQAABBBBAAAEEEEAAAQQQQAABBBBAAAEEEEAAAQQQQAABBBBAAAEEEEAAAQQQQAABBBBAAAEEEEAAAQQQQAABBBBAAAEEEEAAAQQQQAABBBBAAAEEEEAAAQQQQAABBBBAAAEEEEAAAQQQQAABBBBAAAEEEEAAAQQQQAABBBBAAAEEEEAAAQQQQAABBBBAAAEEEEAAAQQQQAABBBBAAAEEEEAAAQQQQAABBBBAAAEEEEAAAQQQQAABBBBAAAEEEEAAAQQQQAABBBBAAAEEEEAAAQQQQAABBBBAAAEEEEAAAQQQQAABBBBAAAEEEEAAAQQQQAABBBBAAAEEEEAAAQQQQAABBBBAAAEEEEAAAQQQQAABBBBAAAEEEEAAAQQQQAABBBBAAAEEEEAAAQQQQAABBBBAAAEEEEAAAQQQQAABBBBAAAEEEEAAAQQQQAABBBBAAAEEEEAAAQQQQAABBBBAAAEEEEAAAQQQQAABBBBAAAEEEEAAAQQQQAABBBBAAAEEEEAAAQQQQAABBBBAAAEEEEAAAQQQQAABBBBAAAEEEEAAAQQQQAABBBBAAAEEEEAAAQQQQAABBBBAAAEEEEAAAQQQQAABBBBAAAEEEEAAAQQQQAABBBBAAAEEEEAAAQQQQAABBBBAAAEEEEAAAQQQQAABBBBAAAEEEEAAAQQQQAABBBBAAAEEEEAAAQQQQAABBBBAAAEEEEAAAQQQQAABBBBAAAEEEEAAAQQQQAABBBBAAAEEEEAAAQQQQAABBBBAAAEEEEAAAQQQQAABBBBAAAEEEEAAAQQQQAABBBBAAAEEEEAAAQQQQAABBBBAAAEEEEAAAQQQQAABBBBAAAEEEEAAAQQQQAABBBBAAAEEEEAAAQQQQAABBBBAAAEEEEAAAQQQQAABBBBAAAEEEEAAAQQQQAABBBBAAAEEEEAAAQQQQAABBBBAAAEEEEAAAQQQQAABBBBAAAEEEEAAAQQQQAABBBBAAAEEEEAAAQQQQAABBBBAAAEEEEAAAQQQQAABBBBAAAEEEEAAAQQQQAABBBBAAAEEEEAAAQQQQAABBBBAAAEEEEAAAQQQQAABBBBAAAEEEEAAAQQQQAABBBBAAAEEEEAAAQQQQAABBBBAAAEEEEAAAQQQQAABBBBAAAEEEEAAAQQQQAABBBBAAAEEEEAAAQQQQAABBBBAAAEEEEAAAQQQQAABBBBAAAEEEEAAAQQQQAABBBBAAAEEEEAAAQQQQAABBBBAAAEEEEAAAQQQQAABBBBAAAEEEEAAAQQQQAABBBBAAAEEEEAAAQQQQAABBBBAAAEEEEAAAQQQQAABBBBAAAEEEEAAAQQQQAABBBBAAAEEEEAAAQQQQAABBBBAAAEEEEAAAQQQQAABBBBAAAEEEEAAAQQQQAABBBBAAAEEEEAAAQQQQAABBBBAAAEEEEAAAQQQQAABBBBAAAEEEEAAAQQQQAABBBBAAAEEEEAAAQQQQCBkASfk8BIXXFNT07a5XK7V87zJWf3zMpnJmWx2kuO6BddxlijBSxz9dV33df17ecGCBc8lLhMkCAEEEEAAAQQQQACBChGomApIY2Pj5Nra2r0dz/s/VTK21PbZXBWLjcrZTqqsPK71nhLOY24mc1dnZ+cd5YTDOggggAACCCCAAAIIIDBYINUVkLampl3UmrGvsrRXxnHePjhroX5boUrJHYrj1nw+/ydaSUK1JTAEEEAAAQQQQACBKhJIXQWkubl552wm8y4nmz1K22l2TNvq3xnP+50qP1e2t7e/HFMaiBYBBBBAAAEEEEAAgdQJpKICYrpXjaupOdlznJOV4PUTpex596mb1jnqpnVVotJFYhBAAAEEEEAAAQQQSKBAoisgU6ZMaZg4fvyn1dpxiuymJdBvYJKedj3vO6qIXK6Z+YE/8BkBBBBAAAEEEEAAAQTeEEhsBaS1ufkbqnh8RsmsT9nGmq+KyGdoEUnZViO5CCCAAAIIIIAAAlYEElcBaW1t3U3PV1ymEaw2tCIQVSSe95dVa9Z8eOHChf+LKgrCRQABBBBAAAEEEEAgbQKJqYCY7laTJkw4TyNNHZ02xGLp1XDAyzV61hlqDflBsWWYjwACCCCAAAIIIIBANQkkogKydjjdq1X5aK1IfA3hW/C8o7u6urorMn9kCgEEEEAAAQQQQAABnwIa0TbWKdvW0vJVL5u9q2IrH4bXcfbMZrOPt7S07BGrNpEjgAACCCCAAAIIIBCzQC6u+BsaGqZMmzr1Jj3rcZz+xV0RipxBTU0TlM/jJ02cWLN02TLerB65OBEggAACCCCAAAIIJFEglgqIed5jQn39XSqQ75hElCjTpDzvPnnSpPWXLF36xyjjIWwEEEAAAQQQQAABBJIoYP0ZEHVDmpl1nHuEsUkSQaylyfOubu/sfK/i450h1tCJCAEEEEAAAQQQQCBuAasVEHW7ml0/btydeibiTXFnPAnxa5Ssm13XPVwPpy9LQnpIAwIIIIAAAggggAACUQtYe/Zi+vTpU6l8DN6cqv3tk8tmr9Nca9thcAr4hgACCCCAAAIIIICAXQFbBd+6+rq6m2n5GHHj7qWRwC4e8RdmIoAAAggggAACCCBQYQI2HkLPtra0/EkPX8+tMLvwsuM4b9HoWLUaHev28AIlJAQQQAABBBBAAAEEkicQeQWktbX1h6p8HJO8rCcrRb2jY02c+OySZcseTVbKSA0CCCCAAAIIIIAAAuEJRPoQuiof+yqCG8NLbmWHpIfSl+fz+W0XLFjwXGXnlNwhgAACCCCAAAIIVKtAZM+ANDY2tqny8dtqhS0n3/KaUJPLmYfSa8tZn3UQQAABBBBAAAEEEEi6QFRdsHJTp0y5Vd2KGG63xD1AZk16UWGDXlR4Q4mrsjgCCCCAAAIIIIAAAokXiKQFRKM6fVYF6R0Sn/ukJtBxTmlqavq/pCaPdCGAAAIIIIAAAgggUK5A6M+AqODcrG5ELypB48tNFOtlMnoe5KmOjo6tZOHigQACCCCAAAIIIIBApQiE3gVryuTJl6n1Y5tKAYorH6oZNk6cNEk9sZbeF1caiBcBBBBAAAEEEEAAgbAFQm0BaWlp2SPrOHeEnchqDW/tqFhv0qhYndVqQL4RQAABBBBAAAEEKkugJszsqDZzXpjhhRWW53nLlLYH1JfpAT30snJguJ7jTNf3XfT79gPnJ+Gz0jShpqbm60rLB5OQHtKAAAIIIIAAAggggEBQAZVxw5nampvfk8lmfxNOaMFDUaXjLsfz/uBls/foWYp/+gixXi04b9dyu6kVx7w4cRMf61hZpOC6c7q6usxzNUwIIIAAAggggAACCKRaILwKSEvLsxnH2ThuDdfzfpJdvfp77YsWvRIkLaqM7KjWktOUp0OChBPKup53SXtn54mhhEUgCCCAAAIIIIAAAgjEKBBKBUSF9ePUanBpjPkwo0b9YvXq1WcuXLjwf2GmQ3nbQUjf1YP1e4QZbqlhrcnnN9WzIM+Wuh7LI4AAAggggAACCCCQJIFQ3gOiyscnY8uU5z2qVo+t1c3qg2FXPkyeOjs7H+zo7NxTFZwj9PW1uPKpZ0FOjitu4kUAAQQQQAABBBBAICyBwC0gaiHYUhWQx8NKUCnhqFJwhSoex5ayTpBlGxsbW2traq6P4yWLeqalWxWh5iDpZ10EEEAAAQQQQAABBOIWCNwCogBOiCMTKpBfZrPyYfLY09PT4WSze2Q87zbbeValp6m1tXVf2/ESHwIIIIAAAggggAACYQoEroCoFeK4MBPkKyzP+75aA+zHq8S1t7cv1wPh+6oCdIOvtIa7kBmdiwkBBBBAAAEEEEAAgdQKBKqANDc3z9Od+ZlWc+95F6sC8DmrcQ6PrKAK0IGafc/wnyKc43mHRRg6QSOAAAIIIIAAAgggELlAoApINpvdK/IUDohArQ6Pq/LxkQGzYv2YLxTMg+mv2kqEKnsT1Q1rd1vxEQ8CCCCAAAIIIIAAAmELBKqA6An2uWEnaNTwHOco/b5m1GUs/tjd3d2lLminWoxSj594ds1tZo64EEAAAQQQQAABBCpeoOwKSFtb2wQVhs2bw61MiusCPXT+pJXISohEabpClZB/lbBKoEW1wfYMFAArI4AAAggggAACCCAQo0DZFRBVCHZXl6DAw/j6ybsK+Mv17ww/y8axjCw+Yy1ex9nZWlxEhAACCCCAAAIIIIBAyAJlV0Aci60fyvPZeiHggpDzHlpwStudqiDdHFqAowc0Xu9e2XH0RfgVAQQQQAABBBBAAIFkCpRdAVGBe0sbWVLrQiGfz59rI64gcbiu+9Mg65e47hYlLs/iCCCAAAIIIIAAAggkQqDsCohSv7mlHNy8YMGCpZbiKjuarq6uG1VZWlx2ACWsqJ5vm5WwOIsigAACCCCAAAIIIJAYgbIrICoEb2wjF+rq9Qcb8YQQxxo9EHNjCOGMHYTnbTr2QiyBAAIIIIAAAggggEDyBMqqgOgFhHOUlXob2VmVz//VRjxhxOE5zm1hhOMjDFpAfCCxCAIIIIAAAggggEDyBMqqgKirUYuVrHje8wsXLvyflbjCieTucIIZPRS1Ps0afQl+RQABBBBAAAEEEEAgmQJlVUBqMplJNrKjB92fsRFPWHHonSBPhxXWaOGoAjh1tN/5DQEEEEAAAQQQQACBpAqUVQHxcrmJNjKkCshzNuIJMQ5XaX45xPBGDEotINmGhoYpI/7ITAQQQAABBBBAAAEEEixQVgVE+bFSAVFBO/GjXw3btp7XPWxeBDPq6+unRRAsQSKAAAIIIIAAAgggEKlAWRUQx3WtPICurkYrIs19NIFbeWFioVCgG1Y0249QEUAAAQQQQAABBCIUKKsC4jpOPsI09QetFpAJ/V9S8kFD8Y6zkVTZuDbiIQ4EEEAAAQQQQAABBMIUKKsCogRY6Rqld4BYedg9TFA9A2Ll2YxsNrskzHQTFgIIIIAAAggggAACNgTKqoDYejZDhflWGwhhxqEWECtD5C5btowKSJgbjrAQQAABBBBAAAEErAiUVwHJ5+20gGQym1hRCCkSvaBxYsZx2kIKbtRgXn/99ddGXYAfEUAAAQQQQAABBBBIoEBZFZC849i5++442yTQrGiS9NC8rfSuVCLUQMSEAAIIIIAAAggggEC6BMqqgLiu+4KtbLY1Ne1iK66g8dRks7sHDcPP+qp5/NfPciyDAAIIIIAAAggggEDSBMqqgPT09CzR3f4uG5lxs9l5NuIJIw7PcWyl9ckw0ksYCCCAAAIIIIAAAgjYFiirAtKbSMd5xkZi9VD38TbiCRpHW1tbY8bz9goajp/1VfmzYu8nLSyDAAIIIIAAAggggEApAuVXQDKZp0uJqNxlNeLWHD3cvXO561tbz3VPUlqDeJaS1KdKWZhlEUAAAQQQQAABBBBIikCQAvMTtjKRdZzP2oorQDyfCLBuSauqovNYSSuwMAIIIIAAAggggAACCREouwLi5PN32sqDCtxHtLS0bGUrvlLjUdpO1vC7Vt5Zou5Xizs6Oh4qNY0sjwACCCCAAAIIIIBAEgTKroC0L1jwb2Vgka1MKKEX2YqrlHhU+Zip51S+U8o6gZZ1nDsCrc/KCCCAAAIIIIAAAgjEKFB2BaQ3zZ53i7W0O87bW1tbP2ktPp8RqfLxK7XQTPK5eODF1AJizzxwagkAAQQQQAABBBBAAIHBAoEqIBp29vbBwUX7zbQ0JKkrlqkQqfKxf7S5Hhx6Np+/dfAcviGAAAIIIIAAAgggkB6BYBUQz7tWd+RtvpF7nB5Iv1EF/w3iJtYLEvfWsLvfs5kOUb/Y3tNjZfQxm/kiLgQQQAABBBBAAIHqEQhUAens7Fygh69vtsw1Wy0h90yZMqXBcrz90akVZstMLnezWj9q+mda+OB43oUWoiEKBBBAAAEEEEAAAQQiEwhUAVmbql9HlrriAc+aNHHibbMmT55RfJFofpk5c+bGQrP+HIZpaVpdKPwqmlwRKgIIIIAAAggggAACdgQCV0Dy+fy1dpI6LJa3eJMm3aeXFG497JeIZqjb1T41NTX3qdWnLaIoRgv27p6eno7RFuA3BBBAAAEEEEAAAQSSLqDeTMGn1pYWMxLU+4OHVF4IegjlU3o3xjnlrT32WlOnTp0+fvz4s/T8ycfHXjqaJVzPO1Fd3i6JJvT0hKoK50TtazOV4r5/TeazatIT+3LhZjJL1WD0lP492d3d/XzffP4igAACCCCAAAIIxC8QSgXEPBOhwvnjcWZHhc0XMq57Rkd3d2hdwtra2iYozI+rgnOaCr2TY8zf/9o7OmbHGL/1qNXVrSWbzW6Zy2S20mhrWyoBW2obmJdRlt7tzvP+o/WeVDjm799VWf2b/jIhgAACCCCAAAIIxCAQSgXEpFsjU/1BgR0WQx4GR+l5j2p0qnOyXV1Xzs9kVgz+0d+3xsbGttra2uMVjhlm19xpj3dy3VPbu7p+Em8ioo+9qalpm5ps9kh1cTtasW0SZYyqsN6piuU1y5cvv3Lx4sXWXqgZZZ4IGwEEEEAAAQQQSINAmBWQ7RXYQ0nJtAqXy1WBuFGF2b87+fyDmdral9vb218emj41K4x329o2cF13I40ytYuW302Vjt2HLhfXd+WjJ9fRsX65lam40u033t7Ws0zmaLVOHKX9Z3O/64W6nOfdpm5bl5nnmfSczZJQwyYwBBBAAAEEEEAAgUECoVVATKhqBblJAe4zKIakffG8DhXqX1E6x6uysZ6SNy1pSRyYHj378Xk9+2H1fSMD44/qsyoe+6ui9yVth92iiqPUcHsrrZnMFaqM/rSrq+vRUtdneQQQQAABBBBAAIGxBUKtgOgB4TfnslnTz54pBAF1E3qxo7NzTghBJSYIVTzepeeFvqQEvSUxiRo5IfdmCoXvtXd3Xzfyz8xFAAEEEEAAAQQQKEdAz/iGNy1btqxb7+eYqjvbbw8v1CoOyXHes3Tp0ooYxamtufk9k6dMuUb7xke0RVtSsFXXy2SzR0+ePHnvSZMn/0fboT0FaSaJCCCAAAIIIIBA4gVCbQExudXoRZNqcrlnVdBMQyEzsRtI3YGu1WhNhyc2gT4TplaxjdTicbH2hz18rpLMxTzvKlVIPjfSc0TJTDCpQgABBBBAAAEEkikQaguIyaJGFVo9ZeLEdj1fcUQys5z8VJlnEVatWnXgihUrFic/tcVTqFaPUzWU7nWqfGxcfKmU/KIhgLVdPqx9e+mSZcvuT0mqSSYCCCCAAAIIIJA4gdBbQPpy2NbScqUqIWY4VaYSBVTQPVatH1eUuFpiFlerxxw9C3SZErRLYhIVZkI87x+ZfP749p6ep8MMlrAQQAABBBBAAIFqEMhGlcnV+fyHel8OGFUElRqu512a5sqHHjI/IOc4/9LmqczKh9nvHGdnDev8lPJ6vPnKhAACCCCAAAIIIOBfIPQuWH1Rm65YEyZMuEtdcE7UvMji6YuvIv563nPZzs6D1O8qn8L8OGr1OlPp/rm6XNWnMP0lJ1n5fKceUM/rAfW7S16ZFRBAAAEEEEAAgSoViLRioFGxuiZOmrRQBbUDq9TXd7bVWrRM7/zYu2PZstSNtqQ3x0+eOmXKH7SdP6h/kXXr841pcUFldp5GfmtdumzZny1GS1QIIIAAAggggEBqBSKtgBgV3R1+SJWQ8SqX7ppaJQsJd1z34M7u7vssRBVqFNM01dXV3a7tOzfUgFMUmPL+NrWEbKt9/XcpSjZJRQABBBBAAAEEYhGwdrdab0m/XJEdE0suEx6pVygc09Hd/euEJ3NY8vQMxExt0ztVAN9y2I9VOEODB9yi53cOUtZXV2H2yTICCCCAAAIIIOBLILKH0IfGroLZcepmdOPQ+VX/3fO+lsbKR1tDw3qqfNxP5WPdHiyPvVtbWm7SnKp4BmZdzvmEAAIIIIAAAgj4F1CZye5ES8g6b90xP10Vs2+um5OOTw0NDVPq6+oeUmo3SUeK7aZS2/Xvqpjtq5cWLrcbM7EhgAACCCCAAALJF4j8GZChBOonf+3kSZMmaCjTyh2mdWimh3xXS1DB8bxjOzo7zx/yUyq+Tps69VoVsHdKRWJjSKRq9etrG2+hff2qGKInSgQQQAABBBBAINEC1isgRmPJ0qW36sH0BSrEVt3oWCqYLtFoVwd2dnX9MdF7RpHEqQXrbG23E4r8zOy1AjLaQhXtldrX7wEFAQQQQAABBBBAYJ2A9S5Y66LOZNqam/fyHOf3KqxNGTi/Yj973vN6g/aBaX2DtiofR2iHuaZit08EGVN3rP3VzY5nnyKwJUgEEEAAAQQQSKdArBUQQ6aRlLbUk/DXq0vWxukk9JdqFURv1ssZj3799ddf9bdGspZqa2tb33Pdx1VZnJSslCU7NWrxWqxtv21nZ+d/k51SUocAAggggAACCNgRsDYKVrHsqGD2RHtn55sznpfK5yGK5WvA/JUZ1z1Vd8H3TWvlozcvrnsVlY8BW9XnR9O6p1r+r3wuzmIIIIAAAggggEDFC8TyDMgIqnn1lb9Bz4U8oALbHvq9Mrpked59awqFfbu6u/86Qp5TM6utpeULaqE6PjUJTlhCtU9voH37ZT2U/nDCkkZyEEAAAQQQQAAB6wKxd8EaIcf1rc3NpznZ7Okj/JaKWep2s0Ddbj6n1p3U3/lubm7eOpfNPpoK+AQn0nTFyhcKmy1YsKAzwckkaQgggAACCCCAQOQCsXfBGiGHKzu6ur6iO+4bqFvWJSP8nuRZC9Xd6ksa5WqjSqh8GOic45yTZPC0pM10xarJ5X6SlvSSTgQQQAABBBBAICqBJLaADMqrXno3u37cuC+rQvLRQT8k6Ivubncqfd/NdXRcMD+TWZGgpAVKigYIOCDrOH8JFAgrDxIouO7bu7q6/jFoJl8QQAABBBBAAIEqEkh8BaRvW8yaPHmGO2nSp5VgUxGZ3jc/5r/PqqvVD/SA+c9jTkck0be2tJhRr7aMJPCggWpIYw3h/JxaybpU+WvXix1rtS2aFOxMpflN+pvIt7QrjTdpf9kvaPZZHwEEEEAAAQQQSKtAaiogfcAaDnaC67rvUiHzUBU+99bfiX2/2fhrWjuE9nsVfv9cye930DtaTspks7+wYeozjvkqvF+ubf9HtSCYh7lXjrWe3luyvbbXgdpHTtI2W3+s5W39ri56O6qL3oO24iMeBBBAAAEEEEAgSQKpq4AMxdND0u9QAXMXPcyyo+6E76Lfpw1dJsh3FWBfEtJ9quzcp+c77m5fsODfQcJLy7pq/XhCrlvEnl7P+4urViYV2O8IkhbtJ/Oy2aypiLw3SDhhrKt96oaOzs4DwwiLMBBAAAEEEEAAgbQJpL4CMhBchcyNNGLTCwPnBfy8qL2jY0bAMFK3uqnUyfHWOBOuQvqNavH4rCoej4eZjqampm2VtwtVudoxzHBLDUvPgrxZLTmPlboeyyOAAAIIIIAAAmkXSOIoWGk3TX36NfLVJ2LMxGteoXCMWgj2D7vyYfLU3d39iMLeSZWbj6hV6/W48qnWmA/GFTfxIoAAAggggAACcQpQAYlTP4Fxm1YkdWU7OJak6cHyNfn8jh3d3b+OOn4zcIC6dr1F8TwddVwjha+mx/ePNJ95CCCAAAIIIIBApQtQAan0LVxi/tT68a4SVwllcXW5emjp8uU76kV9z4YSoI9A1MLy3+UrVuysuP/mY/GwF5mmB/3fE3aghIcAAggggAACCCRdgApI0reQ/fQdaj/KzD16S/ieixcvXmQ77tc0qUvWXHXJ+o3tuL1s9gTbcRIfAggggAACCCAQt0BFVUB0Jzvs/FTUQ/pj7WxTpkxpUEF857GWC/N3xffPbEfH3mr5WBpmuKWGpS5Zx+uZkEdLXS/Q8p43zwwrHSgMVkYAAQQQQAABBFImEHaBPdbsa2QjdesPdVL5uHqmSePHHy5De5Uuz+tYuXLlOxLy9vg1eu+J1e5nos6p0sxLCavnECOnCCCAAAIIICCBiqqAsEWDCejlilYLw6otfuLVV1+NbSSqoVrt7e1P6SWBpwydH/F3q+YR54XgEUAAAQQQQACBMQUqqgKiO8pht1iEHd6YGyTWBRxnrsX4b9VD4FdbjM9XVErT+WqV+KuvhUNYSM1N+4cQDEEggAACCCCAAAKpEaioCogKjmF3Hwo7vMTuGK2trVsos422Erh6zRrbLQ2+s6Za52d9Lxx8wdka+nhO8GAIAQEEEEAAAQQQSIdARVVARB52hSHs8JK8V+xmLXGed3FPT88z1uIrMSK1gjyhyuyNJa5W9uK5TObNZa/MiggggAACCCCAQMoEKqoCEkELSMo2Z6DkbhVo7VJWzma/V8ricSyrZ0G+byteDcdrz95WpogHAQQQQAABBBAoIlBRFRA9A8IoWEU2tI/Zm/lYJoxFHjEPe4cRUJRhdHV13abwH4kyjgFhbzngMx8RQAABBBBAAIGKFqippNypBSTsClU1dcHawsa+4Lnun2zEE0ocnndTxnG2DSWsUQLRTrb1KD/zEwIIIICAT4EZM2bMqqmpachms9O1ygzHdRtcx2lQ4WBiXxAFz/ubbjLd3vedvwggYF+goiog9vkqKEbPW0+F7egzlM3eE30k4cSgYYkfsCBiErtBOCkmFAQQQKCyBVpaWma6rrtxLpfb2PG8jXWe3kQvkd1YPSDepJw3DMt9NjvsfQNZx/mWlqMCMgyLGQjYE6ACYs86sTFpFKYmnbytlLWdVaseTyzEkISJ5EFd2IbMjeTrNIVq/K1EFkkOCBQBBBCIQGB2JjM+39IyTy0YB+gEeYDOyxtmcxq6w0y6bPVeuOxcvt6Ik/8jgEAoAlRAQmFMfSBNNnKgLnLLOhYtesVGXGHEoWdVXm5taenWBS9yH1UCZ6pLQHcY6a6kMOQyT3crz4g0T47zx46Ojh9GGgeBI4CAb4HGxsZWdaN6pyoXB6v71P59fat7Kxu+Qxl1wcA3e9qam09S68uxo8YS8Ee18Pyovavr+oDBsDoCiRSoqAqICoo8hF7Gbqa+ssObrcsIZ6xVtH0eHmuZBP7+pNIUeQVE3QnMNqACMmQH0H3OZt3lnDtkdqhf9VxS4gdFCDXDBIZAQgX0Pqq3KWmnq+X5EF0vQqxvDMtw4LBVg9lISYz03KQCzVXDUs4MBCpEoKIqIBWyTaxnwykU6jJ9TdpRxu55qWn96GdwnFX9nyP8kM/nzQOTTMMFAt+pHB4kcxBAIEkCeq5jR7VyfFtp2rM3XZHWPZKUc9KCQPUKVFQFhFGwytuRPd1+D3w7yEfUaq6u87FYohZRE/gaGw/n604aBe2Rt7yNXXPkmJmLAAKRCrS1tTXquv1ttXicqPMsx3qk2gSOQLIEKqoCkiza9KRGI4rU5DRSSNSTCvPjoo4j7PBVaVpt46qYKxRWh532CgmPilmFbEiygcBAAT3fdbAqHpfp/DrNxk2egXHrc1rOK2lJ5xBeviIwtkD0pc6x0xDaEtxFLo8y53lWCr8qzKeuAlKeaOlruTU1Vrp6lZ6y2NewUf+LPZMkAIFqEmhrafmCBpe4Tnk2IwDGMaXlvJKWdMaxDYkz5QK0gKR8A4aRfDebfc1GTVQtIJPDSK/NMJTmjW3cnSvQAlJss3IHsJgM8xFIoYAqH5fonHo8JesUbjySjECIAjbKnSEmd8ygwi6shB3emBmIY4FsPv+6jXjVArKNjXhCjcNx3hxqeMUDW1L8p6r+hXJKVW9+Ml9JAnrY/Num8lFJeSIvCCBQnkClVUDCLqyEHV55WynitQq53KsRR9EbvDAnNDU1bWsjrjDimDlz5sZhhOMnjAULFnT6WY5lEEAAgTQKtDY3f1Ddrr6QxrSTZgQQCF+goiogep/FpmESaXSOGj0oNyfMMJMYlnkBnpp6lttIW85xdrQRTxhx1GazW4YRjo8wnvWxTLUuUhWtkNW6ccl3dQjoxtPbnWz2wgTlNi3nlbSkM0GblqSkRSC1z4Do7nSLRo/dTX30364m3e31APoOQh8fJrzCnKwC8/Ntra2vqTLyD43Y8ZC6Ed2ndzbc3dPTU1FdZuT4vBwj724k0521jS4KcztFFpbj7BNZ2AMD9ryXB37l8yCBqmiFHJRjviBQWQK5mlzuVwnLUlrOK2lJZ8I2L8lJg0BqKiCqcExSC8eeqhDso1sC81SQfePutJ2hw6cpvv1UQN/PnA3G1dZm9CDdfaqU3K4KyS2dnZ13pWFjj5ZGmT6rvEVeAZHhYbMzmY/Nz2RWjJaehPx2mI10aB960UY8xIEAAgjYFtBzH6cpzk1sx0t8CCCQbIGkd8HK6uS1f2tLyzW1udwivavijyrAfqy/8hGnreOYJuXT1Kf1TrWQLFKF5KfqrhV9AT6iPKsC8khEQQ8NdnqhuflDQ2cm7bv2uwO1r7VZSZfrPmYlnnRGol2TCQEE0ihgujDrGnlWGtNOmhFAIFqBRLaANDQ0zK6rrf2ICvjHK/uzoiUIJfTpKqyeotaZU1pbW/+lEC9UJeny9vZ2K89VhJKDTObBkMIZMxjZfF4LnTvmgjEuoNagk21FX/A8a/a28hRiPNoUTAggkEYB9Vr4chrTTZoRQCB6gUS1gOhuSZMK8OfW19U9Z1oXlP00VD4GbSWVlt6qfxd4rvuCRv34hH5Mxcv3Vq9efc+gjET5RS0LamE4IcoogoStByb/T5WkA4KE4XdddeNzu7u7TaWVCQEEEKgYAfOcpp6bPK5iMkRGEEAgVIFEVECmaVKB9NvqYvWSCu+nKod1oeYyhsBUgG1WJeocdc96QZWqD8eQhJKiXLRo0WKt8GxJKwVYWDueqWAmctJ++HNbCdP+/rjiWmkrPuJBAAEEbAhokJgv6zqYyF4WNvJPHAggMLpA3BWQehXOvzyhvv6/a8cHrx89uan8dZZpEdEt/+fampvfk+QcqLP9X6ylz3HepErnGdbi8xmRWq2+rovm1j4XD7yYGVUtcCCVHQDPgFT29iV3FSqg694JCcnaCrXE3K/W5rv6/jnqoZCQtI2VDM5/Ywnxe2oFYrs7YV5KpILemZJr0/MTqQX0nXAVuJXP3+iB+k/pjPK5JI6c5brun3X3/5O+8xRwQfNworo73aouSPcGDCqU1VUZ3l174umhBOYzEF0Qr/e5KIshgAACqRDQzaU9dX2fFEdidX19OeO6l+tc/uAa131cL3l9Lo50ECcCCIwuYL0C0jZz5nZeLne5Tk5bjZ60yvxV+d5BJ8Y7Vdi9Xp8/oAfVe5KSU1VA7lcFxGpyarLZG/Tsz256GeKjViMeEllvf+VM5vdDZkf6VZWPZaqI3hBpJASOAAIIWBbQVeRAy1GqkcO7QTf5vtPR0fE323FHGF8V3J2NUI+gEy1gs7SZU6H79Ewud3+1Vj4G7gk6qxyqB9Ufl8m+A+fH9Vndww7Vy6JsDcW7LpuOM1UtIbc0NjbaGfJ2Xcz9n8zgB8r7rdomjf0zLXxQfFQ+LDgTBQII2BVQK4SVQTz6cuXqYfeOzs4DK6zyYbJHF6y+jczfihOwUgExY4HrGYi/q8D1dd2hqK04xTIzpIpYk0xulM35bW1tE8oMJtBqqgBtoQflb8lks9cpPXMCBVbmyoq3ubam5uYZM2ZYH/WsraFhPbX63B1Lpdjzri2TjNUQQACBRAqY1mSdT7ewlbiC6x6sluTLbMVHPAggEI5A5BUQVT4O1h3uh1Xx2DmcJFdgKI7zUTUf/1NWG9nK3dqRx36sCtATinMvW/EWi8dUAOrGjfuPKkT7FVsm7Pm6UL7FGzfOvINj07DDHis83dbqae/qunKs5fgdAQQQSJOA3v2xpbX0et6Z6r77Z2vx2Y9Il2gmBCpTINIKiO7sn6nKh3nWYXJl8oWXK51lNted+H+Zh/fCC3XEkLIq5H94/Pjxz2rbfHzEJeKb2SCHv2q/+YmSEOWIaI55R4taXe7VvtkcU3YvjCnetEXLBThtW4z0VrWAzqmbWwJ4pb2z85uW4iIaBBAIWSCSCoju5E9UIfc6tXp8VScjChD+N9o0VQpuVwH8C/5X8b+ktsnuCvthbZAL9M/q8w7+U6klHedjSuvTqoydUNJ6PhZWmCfL4BHzjhYtPt7HKpEssmbNmvMiCZhAEUAAgXgF7FRAXPcsZTMfb1aJHQEEyhUIfRSsKVOmNOhO/q1K0HblJqrq13Ocb6sAPkcP1IXyAsOGhobZdXV131Gl470q3KeCV6lcX3XXi/V8ytf0gOFF+vwrebxUTuJluYG6uB2nyp15M31DOWGEuo7n/banp6c91DArNzAewqzcbUvOKlBA5+rNos6WzudLc11dv4k6ngSEz/kvARuBJEQjEGoFRC0fTSrk3aGk2usDGo1L7KGqAP4hvTOkUSN7HBEgMfW64/85bZOvBQgj7lVnK/1nKRFnqTJyj8Za/KObyTyaXb36sfZFi14ZKXEaUat1XDb7Zjeb3UYXw0Nluav+jrRoLPOU/m/EEjGRIoAAAhEL6Ey7QcRRmFby6+ZnMisij4cIEEAgMoHQKiAaxWl9vfznNp0YNo4stVUWsArNh6u70G0FzztED9otKyX7qgy+Wy1R39M665WyXsKX3UX71y69/Qbr6jKqkJjk6jqUWaB/K3RXbJbMmvS5t2tVJP0LFXiQSWm8QCO2PB4kDNZFAAEEkiqgc1x91Dd89CbzahnCPDl3zpK6w5Gu1AqEUgFpa2zcTO+0uFMnnZbUSiQ14Y4zL+c4d2vUqnmvaRormWrx2EpnrPO0LeaOtWyF/D5b+TD/VDdJ/Ll6hdrTz6gQd1vZSPxGtQVBPAikRCDKAUR6CQpqBU+JBclEAIEiAoFvEptuV15t7c1UPooIhzN7u/H19TerlF30oWnz7I26bP1MpbVHqqjyEY6upVBUSf+6Wj9Maw2TfwHV2ZgQQCAtArr+1EWdVvUIeCzqOBISPue/hGwIkhG+QKAKiBntSt18blKhd/3wk0aIAwV0Ut/BbWkZcbxzPWT9qYkTJryoZT6if7mB6/E5GQK6ijzV0dX1rWSkJlWpoAUkVZuLxCIQ6RDqhnd1FRlz/quijV1tWQ1SAcmqa9AfBfaWakOLLb/qjqVnQn7bF78qHrvr35M6Q/1QFY8pffP5mywB9YnWc+eZY5OVqtSkhjuAqdlUJBSBXoGou2CpB1bVTJz/qmZTV19Gy34GRAXhX6rT/bzqI4s5x47zbtn3eI4zSxWPd8acGqL3IaDt9IP2jo6HfCzKIggggAACowioRF5NhXJaQEbZF/gp3QJlVUB01/0jyvbx6c56ilPvOKdwVkrJ9vO85/W23tNSktokJpNdPYlbhTQhUERALb66PxbdiCA6IXBOKGLPbATSJFByBaSpqWkbx/N+rNaPNOWTtCJgXUDX4cVOPn+gIl5jPfLKibCa7nZWzlaLKScaBXBDHXdzstnsprpOtakkbLqmTtLnSfo70fzTDtXf9VhXsSVa5jEN6/qc3jH01LJVq554/fXXX40p+RURbZSVDwOk7Wu6tFbFJMuqyWulb1C9n2zT2traOcrn5nplRaM5N+lEZM5Lk3ROMuemCfrXX7DWh259f0rLPWP+uq77ZKmvY9B6iZ5KqoDMnDlzkh46v16Vj9pE54rEIRCzgC6SBR0nB7X39Dwdc1KIHoGKFDBDjitju+tCPU/H2tb6u3lvRvtujunvuqt5/6d189aq6JeDMtk36iQazCMzYfz4BZpnRlm6S6W/OzVy3V1rF+VPEgQibF1JQvYGpkHXkXU77sAf+JxoAZ2bdlACd9dZZU9VLrbQLmsqHusmnW8GbtiBn9ct9Manvt9U9jbvPpuvGvgjOi/dpTDv6Eh51+6SKiA1NTVXCGPDoUB8RwCBwQI66ZzY2dFx9+C5fEMAgXIFpk+fPnX8uHFH6o7gAapwmIpHY7lhjbaeLuwz9fue5p+pluiiv1LH89/UimJeCnu17kK+ONr6/IYAAtUlMGPGjFlq3XiPzh17qYKwi/6alo3eSeepMKfZOvfN1nnJ9Kww56bXVEm9Xeen2/T16rQN8++7AtLW3PwBZfBQk2mm6hbQ+yx+roNgvA6y91e3xMi518ngNJ0ILhv5V+YiMLqA7p4dqQvM1qMvFf6vq9asuWjhwoX/Cz/kYCHqmcMjFMIxupD3DroR8gXdT+LqFec+Oufto5Efv6P3LV2uY/zbOsaf8LNysWXMO7QU3snFfg9lvue93N7VdXG5YWlf/Kz2xf7CVLnhhLmetsUEDcRyZpAwVZH8myqStwcJoxrX1f5wivYHU0G3NuluvzaX98OkdT9Sl6rJ43K5o3ReOEb/9uwH6WuB7Z8R6YdpKocdrmPicMVyns6V565ater7ixYtmh8kVp2btta56cggYYy1rrbrA74qIOYld7rr9CNlkqmKBXQSuEsX3pM7u7rMhdfRzp7TPvG+KiYZlnVVzj6p932cO+wHZiDgQ0A3eo7WxexKH4uGuoj2228kqfKhZw2bdQH8gixO0jkmUUOM64J/rNJ0rO4+3up63kWqiFxV5sZoVv6+Wua6/lZznHu0YNkVEOXzc0pjk7/ILC4V0C3rOGcrtVRASthkrc3NX9e+f3oJq4SyqFMoHNPZ3b0slMBCCKStsXEzr6bmy0m8Aavj9RP1dXWfUAX9atXaLii3kq2Xyb056nNT1vPO91UBmThx4k+UsUTdBSllP1LBeYEwTV/8Bfq3sPev59UpTzP0eYYK1U3ambbR56jHL1cU6Zvk94L8PtfR2fmHAan31P/wGFVCTCfVYwbMr9qP2o8+osrHz6sWIJqMa/eqjkl3F01/4cttZ1jH9wXab7+SBOW2trb1VRn6ks7HJyg9kb9RO2Ce91JBdi9d7M/W3bwvqSJydSnhyV03kyOfgu1OjmMjjZEjjBBBMJcRAoxoViLSqXPTyXFUPnqvqd3dv47ItqRg1SrwZh3vZyhNh8si2ceF4xylGzhHqbX2IaX3FJ2bHigls+bcFPWOp3Rlx6yA6I7cXkr4e0tJfMzLvqaM3SXAu7OFwv2r9cBOT0/PEj9pamhomF1fU7OFWnvmqsC9q3ayuX7Wq9RlZLhYDmep4vHDYnlUJeRYVUJWaWc9qdgy1TDf012ajoScKCvMW4dz5U+6q/ZWZfRPOueMeU4OU0NxXqHj+6NhhllOWL3n3nHjvqb+0yfIoJwg4lvHcd6k0shVOg/+XYk4RufEl/wkRvlUvSXyKdjxY0acStv28EcazMVfHGEsFXs6Vfk4SgXv88LITClh6EbEl5NwQ0/530rH97d0HBxcSvqTsKzOMW/T2fR+3ST57fKVKz/6miY/6bJxblK63LEuduNUGL8w8ZcDz+vQmfwaVTiual+wwDQ5l3XQru03N1/r37J2I9Vr5ztIO9+75HCgHCb42XhpX0YVD3PR+aWTzX65vb29Z6z86IL7Ae3gq7VO7AWZsdIa9u+yWqqd7WA1Ed8ZdtiEVx0CGl1wYzXp36Tzy0SbOdZ+e725gWAzzqFxqcVjgoakNF2tzhj6W9q+a/vtqvPBo7pp92E9d2G9G13avEhv8gVU/tlTlY9yuxiWn0HP+64qH98qP4DgayrvM1UQP1vH9QeChxZzCI5ztEb32238+PHv0Tk/MYPjjNqMpEKlaQrfKGa64tF7Xrv64J6gF721qYnpVFU+zB2osiofRSJZqXCvUfjvWr58+WzdnftekeUqZrYuoHfK9C3aST/kp/LRl3EZnSz4T/d9r5K/r6jgtKP2kTurJL9xZFPn/8qdzIPIGl3wNmUykhGdismZ41zH+FHFfrcw39EF/v06pz5TCZWPPi9dLydrSN/fqDXEdMUc1zd/pL/aBqNef0dap4x5wY6fpHc1KQNk7SrBXMqPt9Q1Y0unjs+tFPn1pSY48PKed6nKE18IHE75AdSp7PsF5f05/Ut/5WOdwyydb+8weVs3a+RPNs5NKi+uHfx8hDSYd35o9qdG+CkJs15TIfmz2klnqfB3qY0EmZdTKb7Pr16zZpY2zgU24rQZh/L0onaII9QdY089uPRoOXGrQPMjhfE2hfVCOeunaR3l8QEVnN6qPD+ZpnSnMK3apSpzMqOoaGz3m3WRW99qDj3vfp0/D1KcsbwgU92tpqhv8l90Z/VXSsMsq3m3FJm26YdUCbnXPExfLEob3RwUd7Djp3Jf+hfMpdhGDX9+LOnUjZE52ofv6K1Qh5+noiEqs1eqnHVC0QUi/kHH7AYaXOJ+Xdu/rbxPiTg668ErTzmTN+Xzut7W5yIpsHFu0v7lFr0DU5vLnaKETi2Svthmq1/gj5avWLGRKh4/iCMRep6k3fSZLrjum3Ww9HXViiMpocSpgvRSU5lTnuaoMD3wIfOywlcY/8wXCttqO1Xsw9ja7mfLa6dSWojKwmSlihaoran5szK4rdVMqouQ+gLvF9eQluauat24cf/WBW5/q/mOITJdYLevyeUeMkNaxhA9USJQloDpeqSbA7fpGLU63K7uzv9Z5YfYnjc2zzvrmP230Oyek8vaSsFWUj4Plfff1dDQEiykYGsXq4DU65mHzwYLOvS155uCrfoFftrvgzShp2BAgLqAP6aDZR8VRj+qDRnLncQBySn5oyoertJ+oZ7zCL0yt2DBgqXaTh9R+Pspnu6SE5fcFZ7OrFmzvbb7aclNYsWlTOfKipscNYNfrwv87jZzpmPxBTeTeUdc50/ddTtMBZsHle85NvMdc1yzled7VAnZaWg6tD2KXX+HLhrke7Djn7wOWgAAQABJREFUhy5YQezDWDfY9isxBeauuPbXm3SMbljiqkEXv1ctH5G+d2K0BKry8UWVeW/SMtNHW67CfttON0jubWtoWG9ovmycm1Q+HLkLlmrAZux1q32ShwIM/K6E3q3WmO26u7v/M3B+Ej6rMHpB3nX3SFNBW2nte87jw1HexZfNTargbKUK2qVJ2FZB0qB98Oz2jo7N23t6/hUkHNYtWUD0lTWp8nGezmeHWM2VBupQnPPUcmyGIrc+qfLxTV1TTAvreOuRxxyhCnNTstns7Waks4FJ0XzVByOfgh0/dMGKfAONEUGw7TdG4MN+dt0/ad52w+ZHOEPlkQfX5PP7KopVEUZTNGidj69SUfhbOh5t3BAomo44flCeN8rU1d2r7sCtA+O3cW7S9WDELlg5bYXE3OHV0fdrFWT3iLKgPBC+nM+qGN2rA2g7HUiB3oxbTtwlreN5z2cKhcOCPOdRUnxa2Gw306ezt1tWJvPPUtePe3lt0xu0bTel1SO2LaHzVOVMurnzFVUEbI8Wt3BNoTBX+/BLMUjW6nmP32sjfjmGuBMTpfI/IaMud7rD3H9jT+cWGwWeYMdP5RbKgrnY27OspbO3IK6bFPaypgeUPO/xlatW7W16TdiM18Q1a/LkGcrzP3Q+jnMwDtvZHim+2eNqa/+iH/oHzbBxblLZfngLiC6Qh2uDDKoNjZRiG/P0HME3ddE0L7mzcacoUJbMsyEqZO+kDffXQAFFsLLSZJ7z+LwqAhu3d3dfF0EUYwZpWq+0Ld+mdMwzlcoxV4h3gZW9rTaFwr6qrB2ok+Oz8SaH2CtBQM38J6p7w9ds5kXH/hKdl+bFsQ+vvcDfrbtph9vMc2Lj0nVV1zRzfei/0Cc2rSSsqgRUEP+p7YK4zk0vqCyw56uvvvq6bWw9+7CJO2nSv5TnYV0jbaclIfFtpxtFv7GdlmF3YFTdPt52IkaMz/PO1HMEp4/4W0Jnmlq8CqwH6KCKpZA/EosueD9Xeuao60UihhBWOu7orVSaB9w87wv69/xI6Y5jnk6Ij6mCdLJGOmsyrTaqrN0cRzqIc5CAdt/0T6p8HKL7Pb+0nRMNlrFfHF1Xdad/fW/SpH9zgR+8xVUZe5sKez9fO9fGvh0sDp0UB+eAb5Um0Nrc/CUdp6dYzZd5d5vn7RVHl1DdZN/RDA6hsu76VvOc8Mh0bjpC56YvmGTqc+THvfy9moEm6gfWpogPGDgvls+ed74KgGfFEncIkaqAfZhqk2YIuz1CCK7sIHTtWGweBi87gAhXXNul7ruK4rttM2fumsnl3qs9/jCZWR2VQUb/1dFmKoy/VuXxoQizTNDlCeg8le6pralpF1U+rraZC+3Xecd1DzDdQ23Ga+IyD7LqxseNOpaHPdxoOy2JjM9xjlch6FLXdX29lThgHoIdP9qIAeNn9QQLtDY1vU/PaZ5tOYm9XUJ1w/ZFy/FmzDC7ivMv2qmn2I47FfE5zlk6N/1O5+/ID3yV9wY/dKOhd4+LG0mJulaVD7u18QgyrW4PByvYZyII2neQunZM0c6U+OEuzQsktc1PVgWgVdt/B90ZOUMtI7croyt8Z7aEBRXHLfr3KY1otbni3EgVxk/pH5WPEgwtLqpNld5Jx99WqnwM6l9rJTeO82614N1iJa4hkajyc63OPVsMmc3XAQIqAF0qIxsP5Ac7fngIfcBWi+VjsO03SpI1MttBTi53xSiLhP6Tzg1LlaF94+gSat4/pOPuJv3rfw4r9AymP8A6nZcu17/I9rs+Im0Hd1ALiGrCJ/T9GNPfV1asWHFiTHGHGq3pjqXCx+Hq820KtvWhBl5CYNqRjtDipt9xKqa1FQFj9nWTYL3I6+05x9laH7dQS8Xmyk+bPpsTyCz9G3XSEbRcO/nDqsw8rBPfwyoI/puKxqhk/BiiQG83JNe9Vfut1fcpqQJ/vLo2mBGnrE+6w3ihjrl9rEecsgh1Htswl8n8KAXJjrwgEouBa0ahT/4UVUGw97qazV5lWWCFWmX3042RWAajqR837lrldzPLeU5ddDp/76prVq2FhK/rgqXa8M6KcBMLkRaNQhfOI+Mao75oogL8oELA46qEfFqVkPMDBBNoVe1MhymADwQKJMaV1YXkPkVv/g2bet8kncs16iTdmHXdcflMxoyk0fuvpqZmSUd7+/JhKzEDAQsC0zSp4nuz9k27XQrVsqfzzq8sZHFYFKp8fFLnmw8O+4EZIws4jrnmJn0a9pxo0hPsK30aF9nXcjEvpBtnoadTZZItFai5KWmjBa5fUDW+wzu6u+/pn2Hxg85NFym6eRajTHdUdh7Oz/a3gOhCGetdK+2cP9aF84F0b7XhqVeefqYHe45TjXKn4b9amdOgyuU79OLE26zEZjESjTy2RNGZfy9ajJao7AqoTJu6qW58ff1NSrXdu22ed5a6FJ4Th5buqG6rCtf3dJ6LI3riLC4QbIOoYFA8aH5Jm4B534MqH7fYbJVVJcpVfEep98GNcXjpGbx3Kt7U3oSNw8xGnCrzr3sGRGeZ2GqH2kEXrFy58gwbmY4ljnz+5FjiXRupbvYcFGf8xI1AFQlkNQDFdSq37WgzzzqZn6vnqM60GWdfXLN1JzWXzZo899/Q6vuNvwggkAyB6dOnT9X7Hu5QZcB0Y7Y26dx0oiofsXQJnTFjxiwvm73MWmaJqCSB3guGuYDomfe5Ja0Z5sKed1ocY0GHmYXRwjJvz1YryKU68I8fbbkIf9s9wrAJGoEoBXT9Ss+kysclKojvZzXFnneJWj4+aTXOAZG5eoeA8rzhgFl8TI5A0OPn77pBOL2U7GhfiLwsoTTdVUqahi7r6B0UQ+cl9HvQ7debrd4yXl2daYGw2iqrbvWfjatLqMl43bhx5jmXyeYzU7IE1OjxxkPobnPzLnElTUfXyxoq9uK44rcWbzb7VQ1tdkwsdwk97y3KZ53+rbKWXyJCoMoEdJPhO7rJ8H6b2VZB7PeqfJxoM86BcalvtXnGLLb4B6ZlrM+yekkXPfPys1e1nRapEPqq5zgFrafyWaZZXchaNb9FyzBKzlpM3bk227ekqa3VDGYY3aTAl2uf3yO6GCovZN0kuFr7ttVnjlTe+UZnV9cP4tLU+firivv/4oq/xHjNiKkv6xz0qs5TizRgzkJ9n6hzVLP+Nus81arzUos+T9O/ipl6W0DURDVPmYtn0k6qiM1FoKInvffiZR0QVyiTx9vOqCo9WfWD3D2uYTlt55f4ELAtoBcNnqoL/OdtxquC2E0qiB1pM86BcZlBIHTB/JnyPXB2Ij7L5p8Z1/2bLuTmodcnVJB+spSErR19b0et/zat9zblcPNS1mdZBJIioHLHJTpGD7SaHs/7qW4sf8VqnAMia2ts3Ex5PnPArKR8XKlz04NKzN/1HqB7Vdl4UgPtPO83cWsH3tlBI+jtqErJG+cmx9nA7/pJW663AqKT69w4EqYN0aOd1IxOUBWTdpjvyvr4WDKbzZpWrltiiZtIEShfIHml2yF50agyR+pcdo7lhN6rQvWhQ5Ji9Wttbe3XlGdzhy4Zk+c952YyFyxfvvySxYsXLwqSqKGj72kgjyY9S/chVbg+oBs6abrgW94t9XpjTTKKLF4FHFnYQfaZiNYNlFe1UH5L6To+orSNGKzOhVfqxsjHR/zR1syamvNsReUnHh0SD8rlZ+qOdqWWX+lnnZGWWTvwzu36zfzrnWbOnLmx3uz+UR1yx2nGjLWzE/9HHm8MRSecbWJK7W9iijeWaM1dOKH/K47IdUVIS1NkHDzEmVwBHTLJndSyuLeG2b46ygLXCLl/ZMXKlQdofmxdKlXp2kolo9ieOxli8rD6mh+gh/A30QX+B0ErH0PC7v2qUQS7df7+hgpWG2qH3F+l7D+PtFwC51k/fqI+FpQh63mKcbuWnVe1fHxMx+gXbaZdib1Ox8l7bcY5NK7ebqGO846h8+P4Lo9bdG7aUeeNHXVuukRpKLvyUSz9eufccwr/M+0dHY1q9X2vzk33F1s2SfO1b7pZNem06YQxKaaEXR5TvHFG++uYIrf68FlMeSRaBKwJqJn/req+al5uZXN6Vl0L9op70A5dPH5qM9MjxaUbZy/q4v4uXXi308X9ryMtE8U8FbBuVGXn4EyhsKvCfziKOAgTgSACarF7t84TPwkSRhnr3qpjo+RnhsqIZ7RV6nVuOne0BWz8pnPTQ5l8fjd57KNzk+lyZWVq7+q6UuemnXVePEoRvmIl0gCRZPXCtlgKpubioY3zUIC0p3LV1atX/y6OhOugXD+OeIkTgUoUULP3Jl5t7U26eTPRVv50znxp1erVe+p5sh5bcY4Ujwo3Byvfe4z0m615urN4Tq6zcytd3K+2FefQePRM3T2m8qO0fFi/mYdGmRCIXUDPo+2lYbF/azUhuutecN13Wo1zhMiUd9Mqu94IP1mbpfPBZ9QisUP7ggV/txbpkIh0XrxG56ZNlZbYnsMZkqQRv2Y1d8sRf4l6puNU5fMICxcu/J9ozYgH1qe2tjYepLSuToSVJqAHlJvV5/YmVeobbeVNlY8F+UJhr7XnD1vRjhiPnoX46og/WJhpHHRRnaubV5+an8mssBDlmFEoLRc6S5eaG3nmgXemiAV03Om/qplKyuvaVtnrrep43n+Wr1y5n7opLrMa75DIzFDD6mr+6SGzrX3VuemxzJo1m+t88ENrkY4e0Uql5Rs6X26pblm+H3QfPchQf3XMQyBbhBqkz8C0sW71uWjFLaa89z9AZDNzhUJhY5vxERcCIQiUdAEOIb5Rg1DLxyTdXbxVLQAbjbpguD++povIHqavb7jBlh6anv3YUxtk+9LXDL6GucCvyee31UX1b8FDCzeE/y1ZslB3HOfqQn9JuCEHDs368aPtpN2VybaAWibnZGprb9YGn2Arbm3qF9xMZq/XNNmKs1g8Gmr4JJ2XZxb7PeL5t6rb085659vTEcdTcvA6Xz65Op/fTismqsytk4ST1f/eVHKOQlhBheG7QwgmnUG4bixNc7lMZk46wUh1FQskqjCjlo8/6yK3ta3toQv8MnVt2E9N6k/YinO0eJT3L432e1S/aSe4WbfLdtIoMB1RxRFCuAX1vz5RBZGPhRBWWEFYP360j0Ra6VGGrOcprI1RRji+8to7SpvjmAKmzVGQ5uuY3FPnpgVl5Cv0VdT68bnQA/URoN538nPdfNg77hag0ZJqRs8yadS5yfZzQUWTpZOEm9X/phVdIqIfdFFdqrt5nREFn/hg9eBqLF2wFG9r4nFIIAKDBSItzAyOatRvjkaVuV5lq7mjLhXuj6tV+jhQF7ZEjGrSNnPmdtoYe4ebRR+hed4/dBfvED37stzH0rEvogLZeSqUfCj2hLyRAOvHj67vvgrN5fooQ9bzVG5aQ1hvzLyaVlmNxHebzk0bhRCf3yAWqjVynnm/md8VolxOLbPHCcr6c67a1S/XqyQ+EmXewgxb56ZTdXBeGGaY5YaldPQOw2utuW5AQkt6KdSA9SriYz6ffyqOjOitmpPiiJc4EQggEGlhxm+6WltazteoMof4XT6U5Vz3KF0w7golrBAC8WpqTg4hmJKC0Mb/15pCwVR6YhtyuKQEr13YvN9Kdxu/U866Ia9j/fihBSTULTjm9qvN5cyNEWutsupm+LqeR5unm8jPhprTAIHpUQIzEITdyfN+p4fN32830uCx6WbOh7UN/xQ8pGAhqMLoarvZ6y/Yn1zHib0vc39aYvhgmsN0VumJIWoqIDGgE2UgAZ2n4p10d+0MXeCt3eXqvYPsuu/RkIp/jDfng2Kv0UXr3YPmRP9lfnbp0n1U0FkafVThx6DK4xdlFsuohwNyY/34oQVkgH7wj6Ntv95WWd0YmRc8Gt8hrMy77v56Ued/fK8R8YINDQ2zZfD2iKMZHLzn3afulscMnpmeb0r7u8zNnThTrPh7W0CsDSM5ILNLBnyuyo86q7xqO+Pa4FRAbKMTX6oFNKzjierecJbVTDjOR1X5+K3VOMeITH3M91MlbPIYi4X2swqxy1So2Ns83B1aoDEEpAv9scrLYzFETZQVLqAX7l1kuVV2td59c4gqH/clibZ+3Lj32UyPjuf/atSvAxRn3ma8Ice1Us9hHxDTjfD+rJiH0OOogCRi+MR+hRg+aCd+PYZoqYDEgE6U6RQw77vQg40X2Uy9zsenqYn85zbj9BOXht612vqh7qKfVP/yWLqq+vEoYZk16q5yeG+FqoSVWBSB0QRU+ThdNzFPGm2ZMH/T/ltQl8LD9e6b5L0+wXGsnptU6TsyCaN+Bd2+qkh2ua57dNBwgqyvm3vOlCABlLluKh4mLDNvvlbTycN+BSS+N977MmEhBJIi0NbUtIuG271G50fTTdXKpMrHuap8nG0lstIiMd2vDi1tlfKXVmHnIbUA/aL8EJK1pukrrwrVqclKFalJq4BplVX54eu20q/j0dP+e4y6FP7FVpx+49E7md6kZc0Qs1YmnaN/qXP0P61EZiESDXBymwbM+JGFqEaMwlxcV474S4QztTPXRBh8KoLWnVXrzXc6aek/JgRSJaBzvt1Jdxe3UO9Uc7EdZytmM5SjLmzmLb6Jm/QMzD42u19p2OEPJA4hYIJUobpY5bi/BgymnNWtHz/aVyK9zihD1vNUDnxI6wzKqyofh+jc9MuQwvYVjMprn0hal9C+hKtl9vC+zxb+vrp8+fJYhvqNMm8aMOPTusFk/UWFOkm4WZ0U43geo+q7Aumgtt7ypDNZKh/mjPLgI+zEC0RamBma+7aGhvV0Mr5DzexTh/4W1Xedg3+vi8BHowo/aLi6SzU3aBh+1zcVMXUNeMTv8mlaThWrL8aQXqvHj8mf9udBheaw86wMWc9T2HkoIbz+vOpGwA6qfFxdwrqBF1W3q6+q8pGYd0cMzZDNc5N27DNef/1168/uDs1zJN+Vt0jCHSVQnSR6H0K3XihVxFVfAZGBtQc6+/cBvX+l/zMfEEBgkMD06dOnZsaNu0M3cJsH/RDhF50HbtZQjqYPsz4mdtrNRsrMzTAnlzvdRlxxxGFGDtJG/k0ccRNnugUaGxs3VX/5m5ULe62y6hKqbldfS7Cco+NprpX0ed5zGlDifCtxxRCJKpm/kaX1Z+7MMyCLY8jvjBjiTFqUjbYTpFspcbR22c4m8VWWgM6LVqb6+rq6m9XyYfoUW5mUsbvV7co8W1GwEmEZkczOZMbLxMoQlzo/naMHz3vKSGZqVtFDn7YrWLaOn/5tQBesfoowPnhtbW3r19bU3KXArL00WjuNedYhkV1C+1A1SMhW2tes3Mx2NTiI4tWfyp10A+izNnOn833ve0Cs3xVXxJvazGjS4tKBM1EHTksM6VoWQ5xEiUCyBdSRWC8avFbH5I4WE/rImjVrDlR81p/BKyWP+ZaWnUpZvtxlTbcdvXCwYu8w9rnooc8XVbi7su+7hb+63NqdzLaMMkZlyHqeiuQn0nyaONVVe5q6/txss7ygzfd7VT4S/xyWTOYW2S6hztZG7lFL0B9CDTSBgZlBBpRXa60giitrngGx3wLiOBsn0N9aknTgbGktsgER6cF3WkAGePARASOg0swHdUzuZ0tD59wnly5bNs+8kNRWnOXGI5ddyl23xPVu0mhRnSWuk8rF1QryC4sJ13Xe7qR9JtIKgjJkPU9FBCPNp4nTyWbP1p/NisQf+mydm/6qLqFHhh5wBAHq+Y9dIwh2WJCqBF6qmflhP1TmDGtDwOvg6W0BiaXJu3ekmcrcgH5yFU8FxPNe9pM4lkEAgWgEdIF/Qe+FmLd48eJF0cQQeqhbhR7iCAHqYddLR5hdkbPUCnK72Q8qMnNkKs0C9+Q6O49IUQbsnJsymUtTZBIoqcuWLbssUAAlrmxeRPhcieuEs7jrWqm9hpPYcEPRDSIrD3UOTXXWda0PtTY0DXxHoGoFPK9DBe29UnWn3/M2sbC9VqpVIHHvGIgy37r7d3mU4Vdy2LKLvOWhkv2K5O3fq9es2X9+JrOiyO/Jm+04kZ+bVD5+Sl2THk9e5qNJkbkxpjxfG03ow0J1TBesp4fNtjEjm93dRjRJjENNenPjSFfBcZ6NI17iRCCAQKUUNhbqGYe55hmAABZxrLp51JHqGvQXVcqsP4sYdb5GC1/dYW8b7fcQf7N+/Gh7qgzDlCKBZ9QldK80dAntM50xY8Ysfa7v+x7VX5XVfhdV2EkNV3m+3UbadJLorYBYe+hkSKaqsgKi4fTaNKpMLM/ApLDwM2SX4SsC6RNQeWyJ6XZl3oidptRr9J1GtdZGP8qM592UJpcw0qqHfO9VOIkegCCMfBJG4gVeUcvHHinqEtoLWltba6UMlXfdqjs3FTzvLlt7bVZjkz9pK7KB8ei2zPp6DuRtA+dVw+faXO6omPL5TEzxEi0C1SywUi+g29e8AyJtCIVCwcpF3s1k7kubTQjp1XXe+0cI4RAEAmUJaP/r1rlprlo+OsoKIMaV1HUn8nOTfPI6bz8QYzZjiVo3qh9VxAttRK6BBDKr9W++jchGiON9I8yr7FnZ7LFxZFAH02NxxEucCAQUSHV3DiX+GF3E0lrA3iDgthtzdZ2XFuuCV53nJscxrSBRT9aPn8hHwfI81VmZggroebR3pLZXhONEfm7SfmwqH4WgzmlcX+fl+6NOtxohCqYCYsa0eyLqyEYM3/PeO+L8Cp1pRv4S+vZxZE/b2MbFLo6sEWdlC+iQSfW0b1pTn8tkJkaddl3kzd226pxc978WMm79+FHhJdJKj/aZ3nKLBbuKjkLH97y0ZlA7WOTnJs91q/bcpJPGi1HvG9qGub4D+e6oIxspfJ1ImlpaWk4Y6beKnOd5X4wrXxoBi+b+uPCJt2oFdCL/oM5xcXW7DOTuZbPjAgXgY2WVVV/wsVhFLqLb+FWb94rcoGnLlON8v6mpaZu0JdukV4XX2qjTrfJp1R6fGiTDSt57KyBOoXBH1BuzWPi6QH9Vv+lPZU860N+kHB4TRy51kc+3d3dTAYkDnzirXkAXskvXHv+psnBcN/IKiE781Tw0uJWLfKp2OhJrT8BxanPZ7PUzZ86MfqCJkHOl80bkFRAVwqv23KQ6gZVzU28FRIXTe1RIXRbyPuIrOF2cN9Adwliei/CVwJAWyuVyZyqvfS1OIYXqLxgdrA9qyarsy+hPiKUQiE5Ax98EXej/qBjqoosl/JBdx4m8ApLxvFfDT3k6QtRD/rG8BDgdOqTShoDKJBvW1NRcYSOuUONQ5SnU8EYITO8mqtpzkzgWjEAS+qx1BWLH+XvoofsMUBfo72jIxwk+F0/dYs3NzTsrj7G0fqzFim3bpm5jkWAEIhDQhX5LPQP24wiCjixIjQcf+UU+ssSnIGCNPrQmBckkiRUuoLLJoW3NzR9PVTY5N0W6udxs1gxOFfnUXwHRxSa+bliO06IWmK9EntuYIsg5zs9jiro3WjUl/inO+IkbgQAC6u5bGZMu9B/Shf7otORG540aC2mtmO1bhpWN94BY91VlW7t6dJMyZD1P0eUmISFnsz9WV6y3JCQ1YyfDwrlJu3HV7mdq/Vk19kYItoROEm5/BURv6Y31hStKzBfVUrB1sCwlb23d9fyUXjwY54Ne8/XSq1gGGYhqa8zOZMa3zZy5nbru7dH3z7QymX72DQ0NU6KKl3ArVEBv4lbOXrOROxXqf6EL/SY24goah8baj/wOvR5012A8TAggMJKASsC/Hml+FPNqcrlr03L91A3zyM9NGrinaluA1S3PSgtI/x0uvaX34daWlidMV4Eodm4/Yaqf9B/UFest7e3ty/0sn/RlVCjeSRWrH8aZTp3Arokz/iBxT506dfqECRNMpXSL3n+et7n5q77pG5hw+2vP5svam246iWbaWlvNnP/pX4/6mM/X3yddDTWtVrYnVLN/XPv6UrMAEwJGQMfIK9o33pd1HFMRiXTS+XVibU3N1YrEvIQ1H2lkwQO3cR6eFDyZ6QxhmiYLKY+0NWKk9OtYUj07ulYQZch6nkbKp+bp1BHtJMp7lNnndX07I9qYzCXU2bCuru4yxfPOqOMKIfzIz01eLhf5UL8hOEQShPa7mVEfZDp4sv0VEJMLzbhEkX4vkhz5C3QTjb18gRZ9v7/Fk7uUKTyrQmUKGrFOKnD/LtYElBC5KmxzstnsoVplf1UcttUJsWnQ6qVd02Zp3Vk6q26rvwf2Vla0vraJqaDM1wH2gEb5uVwDMFw3KA6+VJ+AykudXV03qLXyQp3/PmQBYNu2lpZz2zs7T7EQV5AobAxMUrUXeRX21guycXyuG3kheWg6oqx8mLiUIet5GprHtd+jLqP1RqPzxFd1zXqHvuxSJB2hzVaGDlWvgo92dnb+LLRAownIxrmpam+OqGy0XkZlpSgn7WvrumCZiFQoM7XfWCedvI5VQeBbsSYiYOSmi9DE8eNvUDA2LjCjpfY1vek00cPvqjtKi/rFf1EFsv+ocvC8dsof6t/ewyofo+Wy9N9mK/zDM2pyVqtft/a3c9I6HnrpWU/dGtod7EzqqniqYnrGSmyOc7L2+0OsxFV+JJHfZVTS4j5Hlq8TcE31PdsoYBB+Vrd2/PQlRuWISCsIypD1PPXlLYa/vXlduWrV0WJdYiN+FTvPTcH1MPpzk+uqKFedkw7gDaLOueIYXMVRYbVbtZDYH1jWEffF1ubmL0UNEFX4bkvLVbrzvnNU4ZcQ7jTdOXlKLQvzSljHyqImTSr8/17dUTq0G35LXm+2EvGQSFQRMU2Nn1DXrUdk9bDu/pi70vVDFuNrfAKRFmaGZGtVvlB415B5kX1VP5VfJ/z9IJFf5HXsbRQZcMID1o5tI+82j59ecZ1TtVmZwhRYtGjRfF0jTwgzzKJhvfF+kGsbGxsnF10m/h8iPzepXGLj+IxfcqQUZLMbjjQ7zHk6SXjD2lh0Ubw0zEjKDcvJZs9OW0uIaflQmm/UieKgcvMdwXqbqWXhNlPYV9o2iCD8koJUxeMgtXbca9LU2wpR0tqRL7ytngP4qaxektWXp0+fPjXyGIkgUQLd3d2PqMT2KRuJ0v4/SRXf2LtpFsurHhBfVOy3EOeb57qqctL2364qMx4w0zo+rVeqAiY5yOr9eVUL7e91g/iSIIH5XVf75hzdHLQSl980DVxOrUHRn5s8b9OBcVbVZ897q4X8Dq+AaCe/Xjt5u4XIx4xCNSTTNecqLRj9C7HGTM3oC6hg3aSWj38ozfuOvmQ8v5rCvtL2lFqWvh7HO1dMk6625T9U8fiTKmhvj0fBX6yyapLVN+vr6l5Rmr+jtDf7W5OlIhDQprA76Rx4jmK81VKs22kfO89SXKVG83KpK5SxfINaHTcsY73Ur6KbfTtZyIT144cuWKFu1cHbL5v9mHxfDDWGIoHpOniEeR6kyM/xzs5mIz83Kf87xpvJ2GKv0U5nnp2NdFLNenAXrLWxFTRi0DcjjbmUwB3nKF2g/6bmwN6hjUpZ1dayulv+Nr3r498qWG9jK84y46lXy9LpqmA+o/7n7ykzjJJWMxUzbb+LTRcn+di44JaUvtEW1glostL8eaW9U9v48oR3lxktK/xWooCzdOnROkH2lLhaeYsn9HkQVcReUmEnX16mSlrLjAhWbVO9LvJV2/pTbRs7rPyaEULVTfRwS8elGWkykc+DrFmzxkYlzPRoMSNwVtWkMtv2KvdYGYJ4WBcsI60REC7SDr4gMeoquKo58JG2xkYbzUIlZVs76DG6kNyjDdZW0orxLjxLdc/fqGLwD9MyEVFSsqrknKqK2TOyOSGiOKwFq218jFpvHknsHSFrEtYjUj3A/vS/JUsWOoXCe23FrLvhV+jEP8dWfH7j0X7/kt9ly11OF6G55a6b1vV03djDUtqtHz+6caPdJrpJGbKep+hyM2bIw/JqXpmgmV8ac80wFlBBtEavR0ja8yA9PT12BgvJZHYPgzFNYejw3dVGenWSGDwK1oBI1+hFLz8c8D32j0KZmamt/acKzT+dMmVKQ9wJ0gG5qS4i1wrxcqUl8V3ERvRSxc60TKhb1gXqltU44jJlzFRBamttp4dVyTlXlY+KeY5C++BEPSNyvrb7TWb0rjJoWKV0gUgLM6MlR0M036JhwX802jJh/aZ9a7IquH9QeIOGRg8r/ADh/DfAuv5WdZw0vHfAX178L3W4/0UDLWn9+NHNy2GF5kA5GLKyMmQ9T0OSYPPriHnVTeLvi/lvVhLiOG+qra015ZykTeZdX5FOKgcn6XneSPPaF7jKOIf1fY7yr04SI3bB6o1zdaFwnrrqvB5lAsoK23FOmTRx4vO6E/0ZrW99tCLTpUgPKf9sXG3t0zozVMSFU92yPqxt/awK1oEfvm1ranqnduD7VPGIZVSrsvapElfSdt9HLXJPyiuRz/uUmJ2kLx5pYWaszHd0dX1ayzw81nIh/b6tzmuJuvGjQs5zIeVttGBm6wZIdXVH8rxDRgMJ8Tfrx48q0yMWmsPKkzJkPU9hpb2McIrmdU0+b62bqDboobrefaiM9Ee2io1zk1qm50WWgQQGvPZGdOTvmzFZ1z5VtAUkoyYuM+a0eRgzidM0FXK/r7vsL6ibz0k2EmheLKgD8GzdpXxJ59eP2IjTchzTtEP8cO2wve8oJ25tj7PMuzXkUw0v8DFeN2qf+GQ5VqzjW0DM8U660JuheVfaSIXOax9P2PtB/mkj3xnXPdFKPAmIpG3mzF11jrQ1sIX140cFw6KF5jD4lSHreQoj3WWGUTSvKqN1iPq4MsMteTUl5Fxd75L0TETk5ybleYJuClkzLnmjhLyC9idbLbPmLkLxFhCTL72B82z9eSXkPIYXnOO0Kgu/UMG3XTvJj82JXYEXPWDLiLhe4R6p8K+aMGHCfAVs+l1ab3UpI91BVjHD9t6qE811+reBz4DqzPJq9TjD5/IVs5j2iR8p71coQ1Ye2qoYuBRlRH2un1VXrFNtJdk8D1LCsRdpsgqe90CkEfQF7jimApLOrqx9efD516up+bDPRVkMgVEF1BXrBvVe+OmoC4X3Y726JP1xtl43EF6Q5YfkWjo3ZTOZZI4EVj5d0TVVnrF6c122o06rVUtJVLPbiKlVRcTcOczU1NytO/iLdPG+Vv8+re5Au6ivvu+78W0NDetpvX3175vqZnWXwlqhcK9WwfoobZgJI8ZdoTOV30P17796PuQbow3bu7ZL2t1m+QqlGDNbyvv7tM/cVsq+NmagLNAnoFNQ/JO6YpmBOcwzGpFPujtuXgD2+8gj8hGBeS+KFlvhY9Ggi8zQzR5rD/0HTWy56+scsbHOF8eUu34Z61k/frT/KovRTcqQ9TxFl5sxQx4zr7pR/Dmdmx4fM6QwFnCcjfW6gYvDCCqEMGzdHNlJ1/ftQ0hvooNQWc4877KdrUTqJOGO+cCjhmK80bQAqBBuuiGkYTJdY8yzGe9Ud6De29KqTHTrnPisDtJ8kQxM1O9b6zczNOIbU7Tn0L5YEv9Xz4ecZrpHqHDwJd1t+dXABJuRMVRBu0N2Ww6cX42ftd/spudCzMPp++qO+dJqNIgoz/2HZETh+w52xcqVJ00YP34HrbCe75XKXFCZ3t606uqYs9byUiypKgH9U+kxrcuRTjqXfFERXBppJDEHXpvLfdlyEqwfP7rOqhEvuguoMmQ9T5a32cDo/OR1pYbmPUzXn/9oxeh7aDjO0SqQ36Gy4YUDE2r7c1dX14sqm76usmn0A914njluj7CdR5vxqefL12zGp+vK6F2w+hKTV/cDnVPMMyGpnHQubFLCd9HfuUX+mXHooz9wU6mnRL/RwnSpDvaBw/ZqYIzaG+RZ9ZWPAZv1/1TAuFV3EiYOmMfHYAJj3gEMFrz/tV/TpMS8z/8awZY0rbpmUIdgoQRfW90u/hE8FF8hbJaw5198JdrvQjovzNG59AS/y4e0nPXjR9cEP4XmsrOnDFnPU9mJDb6ir7z2dhPNZAIPIuM3udrA5+oGyVZ+l49wubsjDLs/aO3Sh5uRT/tnVNiHtedda60fhk/7UPGH0Af6qhm+SyfOzw+cx+cqFOgbtre19SJVRq7QDhT5XdHUKctI7z65dXZC+smmzm94giMtzAyPbvQ5uut3t54H+cboS4X3q5fNXqa7jRuEF2LpIel29q2lr1XmGtnsd7XmWF2Dyww83tV0XohjUBfrx49pAYlSWhmynqco8zNG2L7zqnPTBXoe5C9jhBfWz/U6SK+L+zqnXc3auUk3XL8dFl7CwqnRdeYnttOkk4S/FhCTMLNza4VrbSeS+JInoDPiB1QhTUuXPPuAjrOz+sn+1n7ExGhDQM+DnKEL/f024tKdt8k63q5XXGN2l40qPTr336EL/bKowh8S7ma6ufHZIfNS/1WVyN10zjw49RkhA4kWWL5y5TE6VjutJPKN50EutRJXkUjcTOZPRX4KfbbOw4fpON4v9IBjDlAtWZ9U3taPIxkl3WnK5/PvVyLnx5FQ4kQgVQKOc4gKUlb7VKbKx39iI72b6j8Zg5b0dOE7Whd6W91St9WF7/uDUmD3y2oVnm+xFqXjnBV3q0/oefW880MP01+A1o8fumD52zA+lypp+63tJmpvMAfdiFT3nQ/4zEvoi+k5kBcE9FToARcL0PN+VkldrJuamppV+fhqsexGOV/x+uuC1ZcI83Cthj47XBfefN88/iKAQBEBx/mK7i4cWeRXZvsT0HkqeZMeDv+vCuXH20qZED4R6/MRrnuDrbwqHjPcp2lBTOS2L9VBNyLOV6HcDHISx2TdUOWDkgrNpaIoQ9bzVGoaQ1y+5Lzq3HSHNsC3Q0zD6EGp+45uGMT3fhDPs3Zu0nG8obpSWu+uNPoGKPvXbC6Xu0Z5mlR2CAFW1D7qvwtWXzzauR/Uhffzfd/5iwACxQX0IPFlM2bMmFV8CX5Jq4C6Jv1BZa3LbKVfz2JcoQch22zFNzAeRy8YHfg98s/qxqiC+xmRxxNxBLoB8X5dL6vmPQIRcxK8TwGdm07Xov/2uXjQxWJ9P4gKsn8OmoGS1tdAEmoFOaikdRK4sM5N56h2u2ucSSupC1ZfQrVz/0gb/Yq+7/y1K6BWqKM0NO4nVPhZbDdmYitDYPy42tqLyliPVd4Q0KkmuZOOxZN1HL5gI4W6UzV5XE2NlXeRDM1Pe3t7j557uX3o/Ei/O86ZSRgFrNw86gK/g25A/Krc9UNaz/rxo/205Lv2peRVGbKep1LSF/Ky5ea1UHDdI3RusvPslp4HKbS2xjIsr2nx0bmpPWT3UYPTcX2lui9tM+pCCf7R3BgxoyzGmUSdJErrgjUwsaqEHKeNbrfmOTAB1frZdU/SAXdNe1fXj5ctX76RTjAX6J+6pDMlVUDX4/3VfcZev9ykQpSXrkgLM+Ulad1a6oO8TGPwmwu9nW6pGmVN3R1+tC4F9j7pJPMze7GtjSmX+515oaz1eANGqJe3bq67e/aemymeXuvHj46FcgvNxXMx4BdlyHqeBkRv+2PZeTXvybDZ+qaEHqPr3Em2gUx8ah22em7SNX1STS53e+/Q2nFkOECcqnzsr231ywBBhLKqThKld8EaELOrN3AerECScJIdkKzK/Sjrs1XxuPj/27sTOEvK+l7cfbpnYxbWWXoGNaCiKBo1RkRRIaKouESJgho1kty/Jsbk3iQaYza9N9GYxCze670mUeMWl6jglohRUFCCSxQxEvcNl+7ZAIHZezn/bw009my9nK56+5zu53w+M31Onap3eapOVf3qrfetiRrecsstNw5v3vxruQp7/+zzPzkx3d/uE8gO8m+Pzav7Stb1JWr0ZKaO2qdv3LXZof9BHWnNJI3k9T9y4Cs+olJ14SP7mTIj7PwEYlmGiPxw6nvGTyZ197tcGb1bhmr+RE7+jumCkhb//WgBqXWtz2n95ULx25LAO2st0VSJpT9ITnCLPx9kbGzs9VMVq6HvTkgrwmW9NGBG1s3ZKfMl+Y3O26iKE+six7HOW0AmEhkYHv75vL964rO/DQm022/OzuSwJzm50vHlBCJnJRC5MDub7zdUAsnOQSA/+HUrV6z4kzkkYdEuFsjFmL8oeYtSnlr71k3HH9/4E9kPJs9B4+8Pntb05/x2js5B82Ob1q2b1/uVZ1LPtHzcJevm8pR5cCbzm4dA0wIjIyPPz4WD7zadz+3pH1Wd4OZ3sLJQfvuz2f+sunb7n0vmWeWV3/nJ2SdeVV10KJ33bPNL8HF6ylrdtbRitss2NX9HfUAmFyZj8u7eNzLy2Ez75uTp3tcnkKDi33KCc9F0KeYK5bsTpNyz5IPSpiuT7ycJtFovzJXckydN8XYBCewbHX12qnNToSod27ds2bsL5XVHNqlj8QCkyjwH+tV9S5Z8LFcbn3JHYbrsTW4/eVSC0GtT1p/qsqIpziIW2L59+625OFnyFuB75Bzk74qTj429tniet2V4p1x0uLo6wZ+n/KfNNvvNX01g+Nnsm1ZNO3PBGeYcgFRlrTbwHCEelbffKFj2RZFVrlxcMZ7OZLOo7J48KO2P9uzde+ccDN8zi+V6a9Z2+9tVYJZ//xSjv87fP8vft+6f1m5/r1sr09/f/4puLVuXlisXbXrjlf3gUA70zypW2owUtXFw8K+K5ZeMUsfh7FeK3m89qX4rsjFckoPp27rsdsZWRux6eW6z/LeU9bhJ5e2Gt8V/P9kPZzfc3CsVKl6n5mozbcq11DV3SXwmK+UPp82tphlyovvsnJBfVFNyM0pmaNu2q1LHq2Y0c80zpb7rs6Kuzr7plUl6Wc3JzyW5FSnT21O2+dpnH7HsWVf9tWzcEzlkg1tXNZXn8/0mpvnbuUBW0AfSovHkzlPo68s6OSsruRqH/t5zSacLlv1hrqq8JR1hP5Sd6ZdSnj1TlWndunWrM8b1AxNhPzKOj039u+fqxMjIA4e2b79mqvL77jaBXFV+erqqNXoPc7arv0/Q/qt1medk9LW5IPPrdaU3XToZ7eaJ+U0UGxCkenhVOmCW7gtyAEPOcTfnWSG/nT5xjW4bB2R6mA/Zz9w/Fn+T/cvZh/m6Gyb9+9DwcNFb1zZt3JhdbnOvJL4rx8V5v5K7ccOGP2319x/2tui6ap8LGi/InQ21nTzmgsUV2VbPqqt806SzO+X/2ZT/K9PMV9vXOdl+YM53Pl9bgh0klH3TV7P/f3620U91sHhti+RuiyfkgudfxuPU2hKtM6E8nLWWFpCJMmVD27Zr9+6zc4XssxPT/O1MIDvZf5pr8FHlnHVyZfqHnJaTrOfl442dlWb+lorD23OCdU4OonfOSeIf5kSr2ramDD6q0lYPzazqnlvXXpb6PzjpnDSPV24PAGwvXVrsStQBGffmh+w/e+uVbe53UuJircFp/n9byeeDVPdb5/f0Z/O5VnISNZjA9B0J9i7PgfaupcuSCzsnVVcWE3xc08XBR8VS/PejBaTWrbHW9Zdj6YUpXanbRI/KCeYH7tTXd1StIlMklnOmL2Tf9L4pZmn8q+wP7pWV9snsm9584po1JzSe4UEZVEFYLgJclePCh1KO7gw+UuaspzmNgnVQtW/7+OO8cgA+I4m//bAzmDitQK4a/HF+SNX95LW9cvL++gzbe/echP/f2hJtMKEcxN4ah5Pj8KwEHR+fa1ZJ5/psly/IkKmD876D6ut7ir4gM16jWV0999qbbbdkX4Vjly5ZUvSgu2fPnj/PWil1InPkDaDVemQOtN/Old2LExScd+QZ6/kmv9tzqhOLtPR/Nwf3Z+Zko9YTxHpKeUAqxX8/TZukQsXrdIBo2Q+11nV/Z+2xsV8uVoU8H2R8cLC2FpyZlDud7n9vJvM1Pk+r9Uvt1at/kP3FG9Nq/JCm88u+6cLk9S/ZIVUtQGc2nd9c00855z4K1pEKUZ045mT3JUf63vRDBXLSXXUWOy9X7hsZLenmm2++KSfhL0wepyWvKw4tQRdMabeH+8bGHpNWi1+Kw/fqLlG1A862eX726ucn7RvqTn+m6aVp9DdnOq/5ek8g2+5X8jsrdhtWTvpOz8GnCgqKvG666aabU78/KpLZDDJJ/c9PUPCvufL3/VwBfE2eHXLuDBab0SwJbPbbJu0fJti5LLdX/NKMFjQTgS4UGNq69f3VbafFipbfS36TzyqVX/qpfSPnnvPVIf3gah6V/cUvp6X06lwkua66bS/ByEMPnqnDzyuyb/q52L4had+cfdO7ktfjO0xrXhZr/OpNBZRM3p8DxNHzUsNeyTSdqjPCzHn7fzyFypwN9/z8UF+ddXNyoSyny+ba/IAevf+py9PNWcP3VStEfrQfSVL3qCG5WSWRAGjX6OjohupWsVktuMhm7sU+IJNXUYKCD2WbfsLkaU2+T1Dw+AQ/H24yj8lpZx/yqezfi/YxmJz/NO9353d2Vd/4+Heyj/tO+o99JwN6DCX4/3Gukt68ZMmSH6d1decxxxxz3KpVq9bkuzW5MLMm35+Y/iUPSafyB3dx3aap+h1f6wNyB0W9b3qxD8iEQHVb1PjGjVVfylMmpjX5tzre5Tf3gFLnNzm2r8qx/aupU/GhymfoeFPOva6u9kn7903j49/KctvSb/XmOP14+bZtN1cjzFa3cI1l31Ttl6p/S1qtk3I8OfP2fdMDZ5hXd86WPiBLmi5ZDoafOOGEE+69fOnSvyt5IG66XrWmnyBgrN1+eX6cO2tNd5rE0hJwSWapRpX5gxxoq850xe7VPKRo7fblI2NjTy55Qp6Tj+/m5OOMVUcddWm2zQcfUqYGJ8R75dL+/guTxRsbzGYhJB2q3n3t2rPn2UetWPHVHGQGS9QirQBvT3+Q07IvGSqRXx4A9txc3as6mS4rkd8s8zgqG8+jJ+40rjo89g8M7E9i+bLbiptWjduSzMBNsUuPids3t/zt6Q3vJ1DFq5ETpZwfTUD+pCB1vavWUl1p9UA6jdS1OrkdzG2i2eaviUHjv91UYuXtt4n+TPLb27R7dWEhQchzE4Rc3nReHaZ/XPY1j6/2SdUr5bztTfZDcepLcNi3KVMSuPXt/+agn1MjG8VtJSj2f+o2Uetm87zhhht+lFt/npircxdm37Sl2dx6KvVr+0ZHfyY2L65+MPNV8gQir8izXKr+If88L2Votz8Ug0eVDD4m6lndlpbg75xsl1dOTCv2t9Uq2U+gWLVk9BOBqk9cDjQXVCdlP5na6LuqP8j7k8NtZ9qNZtXXl1sav539eqMjATVcBckTWJQCuTj8X9kpFbtNPjHpvdMi/LpS2Dmn+njq5wJfKfAO8pkIwDpYdPaLZIN/d55Pcc9sFP8w+6UX1BLV8HQvyshOD8jY1V/shppVV0zTAvHfipclI6Yl+HhS8XwnZVgFfxlO8bycI35u0uTm3+YKSK5Wr2k+o57OodSJe2NICfA/lUr8RWMZHJRwDvQPyoH+lQdNbuxj9uuvzsWLTzeWgYTnIlD899Nk68dcICx7qED2TX+b4151G3KZV6t1UW6rfUaZzDJc5p49v5P6XV8qP/nMXCCtOO2iAUhVtKrzYjb652ev+KD8+8LMi7sw5syP4b1pbbhbDtpFHyA2E72ltz1Mciaz1jJPLLZWt13VktgcE0m/k139O3eel21y+xyTmtXiueez8ZF7ZlWg7pt5IbQ2V8NhV60E5S42tFq/m1srH1NqdeZe5p+vfs+l8pPPjAWK/36yHRQPemasYcZDBHLce1bJ4167v/8N6Yh9t0MK0sCE2wfLqPrgNX7bVwPFX9BJZptrFQ9AJkQThHw+/342LQEvzNWzmyemL+C/36ieZ5HRnZ6W1obhbqxne2DgcSXLlY6ev5Xbrub1gWaT6/ujW2+9IcfOF02e1vT7AbdhNU3cLemPZV93fravYrda5szzXaWeD5IAa1vq96Tsy0e6BVw5CBCYXqA67mUAhqdPP2c9c2S/tDJ9Hj6Y1JbXk+LUqeQOh+syEMVFU8/l2/kQmLcAZKKyOXD93z379t0lB67fy8F54fUPabf/sz029qzcbnXP6p7EiXp35d92+9yC5bo6TzF+R8H8ZpRVtse3ZMarZzRzPTM9vJ5kpNLtAtm2vperPi8sWM6i/UGyf/tsWkKeX7B+vZ1VmT53WiN6eyspUvr8di/P0Lx/UySzZFL1B0kLbbFnkuVc4505x+y6u05Kec82n+w0/mm2y8x2/gSi5W/BOlwhb7zxxlvSD+DP0zpwl0Sq/1/mKfYU4cOVp6Zpl1XPs0i97je8dWvXP5QxV0o3ZqdwUk11nz6ZsbGXTz/T/MyRhxW+IMFwmQN3q7Xp+OOPz6iIXkcQKLMejpB53ZMThLw5B8Jigz1U/UEyFPor6q7HkdJL/d6UlpD/c6TvTb9D4NrcfvqqOz4toDf6gPTmyszDin87Jb+2VOlzAvorJfuD5FzsRTmYfKxU/Xo1nxi9ozU+fmmJ8s97C8hBldyXSPUNaS04NYHIo3Ogfle+75l793LOunV/lD0ycmrq8Og88OejB9Wvaz9mTPxiV+LjdF1sunZHkJF9qvHR31dqZS1fvvzBpfLqwXxynFpYr9sHe/hBqVplqM2XJAg5u1R+CUJ+s2SQVapedeWT/d9oLgE/IyfqJYLr4r+f1K9EvepaHdKZJDAyOnpBPu6ZNKnRtyX7g1QVyW3/T8y+6TONVqqHE89Pd+uuXbtemL+N7zeyk5i/PiDTrKN2ApHLErE+Y9fu3YO5ovbrASk7QtE0BZz09Z5s0P+a1o6npAVnQxVlD23f/vVJ3/fE2/THOKNUQbPh/c9SeXWaT8pY7Cpu7E/vtJyW6z2Barjp7NOemn1a7lgq80oQ8t6Mi7++TG59fdkPPjO/oWo4YK+DBVqt/5lBL7528GSfCcy3QPZN38zF398oVY6c5RbtD5J67c2w+4/KvukLperYU/nkqfXVowlKlbnbWkAOqXc1jn6uqP2/nNw/OMHIcdlwfiH/Xp+D93cPmbnUhAwdmzK8MicRj0xLx1E52D4hV/R7+2Dbat2rCF+e+J71+d4iec0hk5Txiixe6ir1aXMo6kJfND+1hffK9vW5XAV/WcGanZAnfJf83Y3nauNTcnHmQwXr2PVZZWP+WFz+tCpoWkBKBKDFfz9N34KVChWv0zxuWMXrWt2FkvOri0vVOdtL1R/kf5fKL/1ddu7evftRya+608HrdoHq1tnsmz5SfSyxb0rwOd71AcjkraMKRgJ0Sf49LwHJXTOc7YmJ1p+czlN/ml/pv2XeGybPX8f7pPv9/Bjfm5Xzu/n3cxnJanUCjjNShj/IScQn6sijG9LIBldkWLzUtVpPvfEqdPKUbeynegNEKesUyD6k2m99qs40p0orO/yH50BfrD9IVZbsK6uRsd49VbkWy3c5jnw+ow15+OhiWeE9XM/de/ZUzwQrdQGuerT980r2B6nOJVs7dpyTOv57D6+m+oqefXTOZ3+zvgRnltKSmc3WnXNVD89LyT5w+7++3GJwcoZ3+06Npb0xJwmL5eTwlBrdjphUu9X69BG/7LIv0lT7kQyT+4ICxTqpQB69mkWOTQv3tXfv3mcuX7bsK7kAsKZILdvtl6Y/yMdub+ErkmWCkAtzcvHF/PZfkXr21EWvGoG+sXPXrsfccsstdwzDnICkhEXx30/qlVXdaizfJNxY2jWu77qSmpe6VifoK1aseGoy/3Sp3+zt/UE+lz6Y364Lb6p0quGH+2699aw8tPX1ueR/0VTzLuTv8nO9Ihf0nzm5jtW+qekNLxff+kvsACfXy/suFKhGwCpVrNHR0Z7pADYwMlJkRJDs4FdnJKyjS60D+XSPQEYA/GEOfs8tVaLqxLB0f5Cqbrmt41U54DwhB7YdperaNfm020NprT87wceNXVMmBSEwjUB1m2hOQou1mCav0v1BKoGxXCD55WRXKbcAAC4gSURBVNzdUo18OToNyUL8+ksDmzefVznMR+UWWgBSd9BWd3rzsY6nzTMjYB037Uz1zHBjOrl9q56kmk9l6MYbf5Cd0q3N59TXt2zZMkPxHh46560L+5VW1ktSydcXrGXp/iD7q5YTmksTbJ2eui6eDtjpL7h3ZOT0Izx8tsS2XSKPAzbdKsg9YIIPPSuQk/M/LjlqVDade2/csOE1pcGyb3pdfiiPyvF+4T2L7giYqevFuTDy8B/29e0+eJash8b3G9lJFGkCPrhuTX6uG63u9Jqse8dp577kYzteeBYLZoO/bhazd8usXyxRkP7R0RUl8unBPBbFyUyCkN/Iuin2/KOgFu8PUm17qedX8+9+Oal5dfYHJTphz9smn4PH3+YE7mE33HDDj45QiBLbdok8Dqhe1uuiOG4eUOkF/CEPin5aVmmRC3EVY6u///m5TfRppUkThFyZvi+nZuN9Z+m8C+e3L32n/3tuu3pqLowcdr1mfTe+34jzor0ft/D67u7sMjrOMUVK2GodEmkXyXdumXxvbovPbOmxgYGlM5vTXAtUYG9uAzg/ddtXrH639Qc5u1h+P8loX07MX5wBPR6WA931P5m8MN5VJ2up25MSaP1WarQYb+tYGCtSLfYLlL5NtMo0V+DfvH79+lID49yxpqu+L/ndVkOIV/viH9/xxQJ5k3p9P896eXBuiS026thUdAvqFqzs+OuuT+NR4FQrp9R3cSsyGEGed1Hu5KouvEKdZhMELquryAssnewzF8crV+D+K5V9aana5iBf9Qe5OH3ANpXKc3I+6Wz66dGxsfukzl1xMJxctk7fZ196cQ7wp2aoz5kMP1xi2y6RxwFc1XZ1wAQfel4gJ+WXpNXyLaUqkg1o5ZL+/uphwPNyZ0Dq+778ju+VH887StW56XxSl9ekD+5puQ1+2r6t+Qk3vt/IOq79hL1pQ+k3IJCNrdStEHsaKH7TSQ40nUGVfm6D0wJyeOhFdTKTA99fh+Gyw1M0MvX4ZUuXVsPkzotzDoY7Uuf/ntaf9TnivSon8Lc0UsumE01H8zyM9jG339ZQjc44k1cJ8xJ5HFDXrMPGT14OyNCHMgL9/VVH7e+WySy5tFr33Tg4+DfF8jsoo+ybNmff9ItpzbxrNuiqj17vXUBNobPOvtI3Ovozqcv/qPa3B1XzsB+zTOP7jZgurFuwGjiRXhQ70riVGgGhVD6H/VF1MjGtNnW3qh22GAXXwWHz7+KJi+I3ONk/J+PPzAFg2+RpDb8/M0NRvrzhPKZMPq0/23KAfOmevXvvkmj8pan/5ikX6KYv2+2/yoCSp+RhtB+dTbEaOF4dLvviv5/Uq9GTl1SoeJ0OB1toWtfUdWhoaFeCggsK1Xt/NtmUfjX9QZ5aMs+D80pr5nezb3peOmyflLP512bfNKOT+IPTKf653b45x5IX56LIaUPbts2qL2uJfVN2Er31IMLiK3CRZJgfVJGWiQwOf49eI02ZizQBZx0YovPwG0ejJzOHz3J+p1Yn4zlwPKNkKXKW80c50J9dMs/D5XXTTTfdXA3Zm4PmndKi8JT8Lj6cf6VaaA9XpMNOS5m+m3X0uzt27jwh/VletP/k7LBzHnli0ihxcaP47yf1avSkORUqXqcjr8XGv+mquuZE/PM5CX9J47WelEEA/jEPUP2pSZPm5W01kl1+67+RYWvX57d/UQpx9bwUZJpM8+O7JhdxfiVlHcyx5NXTzH7Yr0vsm1LOxp81ctjKNTWx6rS0ZGDgWzWmf9PQ8PDxNabXlUnlAY73zQMc/7NA4fbGs8gJfV11SRPw93I1oPGdX66unHj7gzXrKrp0CCwIgTwj504rli37bzlgXZDf4r3msVJ7cvJ1eaKh1+XA/q/zWA5ZEyDQBQIJjO6VuyRekH3T07Jv2jBfRUrAcEtapz6UW7lfmxabz8xXOWabb1dF17Mt/MHzC0AOFpnZ53Xr1g0uXbJkeGZzz22udOw6Jfch1hkkzq1AUyx94po1J7RXr94+xSy1fZXAbFkSG6ktQQkRWIACVTCyfPny8xIIPCYHr3Ny0G1sBL/9B/W+vquSz5Vj7fYnc2D/j5D23G2kC3AzUCUCXSeQFuTTEoScm4JV+6ZH5O9RTRUy+6atSfuTt++brsy+qXrEQeKg3nql/AvnlSv5J+dK/ndqrNGNOTE8ocb0ujapTRs3Ftl4k8n5acatRrfo+ld2KI/LKEEfbrqg2ZncmltOPAm9aWjpLziB7PPPyEH/nrmX6aTsW+6WgOTkHNROTkVPnE1l9x/QW60v5m81Qsw1GZXuP3Nb1eJ5YOJssMxLgMC0AtUtrf3t9t2zXzop+6hqSOGT8/7kvF8/7cKTZsgy308rS7VfujYXXq4Zb7W+lBbY702apWffFhl+taBO3QFV3ekVpJhdVjnwfi8/jJNmt9Ts584P6QlZqicCkHg8bPY1nP0S2ci+N/ulLEGAwO23Gxz2loO07K5OILEySqvyW67+Tvyrnke0I9/tqF633HKL/lc2JQIEahVIkHBFEqz+HfJKS+7RAwMDKyf2T5lhZfZRK/JvZ/7t2LNnz47cTrWjei7JIQsvoAkLLQBJsFjrq+70ai1cnYnlJPi/kt5JdaZ52LRaradk+q8c9rsum5hg6aK+Zgd02V/jdHT/UpdVXXEI9LzA7UNO9saINT2vrQIECMxUIA93rIYb780hx2dayRnMV2IUjhkUo55ZchW/7vrkvHzRvL5aqKbH5baJCwvl1XE2mzZs+PkEHxs7TmAWCybQ+fIsZjcrAQIECBAgQKCnBeo+YZ9XjDRd1T1c46JpAUkny8+XWnlpdvz1Unl1mk9aJZ7f6bKzXU4LyGzFzE+AAAECBAj0ssCCCkCyIupusag7va7dVnK/4ZWlChfUh3fDMweOVN+00Nw1wezjjvR93dPTcndN3WlKjwABAgQIECDQrQILLQCpu8Wi7vS6dTvoy/3SmzPCQrHhcTO61Cu6FSNl+8tSZUvwcV06q5V86nWpqsmHAAECBAgQIHBYgYUWgNTdYlF3eoddCd0yMbcCFWsFSZ0fmlaQrrsVK2U6L60f5xdbJ63WZcXykhEBAgQIECBAoAsEFloAUneLRd3pdcEqP3IRWuPjHzzyt/V/U7U0VE8SrT/lzlI8+uijj0+Z/r6zpTtbKi0gH+1sSUsRIECAAAECBHpTYEEFIEbBmttGOLRly6VJoRojv9TrqIwA9aH0uVhVKsMp8ulftWrVB/L9naaYp9avsr2OpUN+yVanWssvMQIECBAgQIBAJwILKgAxClYnm8ABy4ykyecjB0xp+kOeEDrQan0wZ/1HNZ3VVOmnJea9ud/uYVPN08B3H83Tlnc1kK4kCRAgQIAAAQJdK7CgApCuVe6hguWq/PuLF7fVeuTYxo3/dtxxxx1TOu9Nmzat3Dg4+OEEH9UDEsu+Wq03lM1QbgQIECBAgACB+RdYUAGIW7DmvkEt2bz5PWkFKX5VPgHAw49aseLLuR3rwXOvxcxSOOaYY45rZ/jhkkPuTirZDcPDw9UtX14ECBAgQIAAgUUlsKACkEW15hqq7A/TBySB3BsbSn66ZO+cTuD/nqeQ/15mTEzS3CuBziNXrVz55QQfP9tcLlOk3G6/Kd+OTTGHrwgQIECAAAECC1JgQQUgAwMDd69zLeVEfCAnqifXmWYvpDU2Nva/56ucCQgG+vr7/yx9Mi5dv379/eoux6bjj7/zpsHBNw7091+etE+sO/2ZpjcyNvYPM53XfAQIECBAgACBhSTQ6FXmpqHWrl17j2VLljwz+Twsz7B4SCqzsok8E4hs68uV+aT9yTwx/O1btmzZ2kQ+3ZTm/n4RBZ8GfqS6x/7DGR74NUNbt85puNoENI/IiFvPzXq86Eh5FZvebr97aPPmC4vlJyMCBAgQIECAQBcJ9FwAkqBjzdKlS59x+8nkQ+bFst3+lwQ8b8o9/JfMS/4FMs0D+c7K7VBXFMhqpln8IH1T/ikB4AcTAH5mqoVOOOGEE5cPDNy7PTBw3zzd/cy0qpyd+Y+fapmi342MnDq0ffvXi+YpMwIECBAgQIBAlwj0TACSE+KzU9iLcjJ5QexWdINfrs5vTZneUt1Os23btm91Q5nqLENuVfpQWgyeUGeaNab1zfgPTaSX7eLovF+Xf3eamNaVf9vtN6f146KuLJtCESBAgAABAgQKCHR7ANKfDskX5CT49/PvvgU8Os6iulUoZXxZWkU+33EiXbbgunXrTlkyMPDVnNwPdFnRerI42UbG9o2M/NQNN9zwo56sgEITIECAAAECBGoQ6NpO6Ak8np4r8N9Ih+R3dnvwUa2HnKSfl2juP9LX4CP598Aa1s28J5FWnW+mEK+f94IskAJk+3ir4GOBrEzVIECAAAECBDoW6LoWkNxqdVpO5l+Xgj2841p1w4Lt9j8meHpJnnS9vRuK02kZ8qC+tbly/9Wsj7WdpmG5CLTb3+7fvPm+1TDHPAgQIECAAAECi1mgq1pA0nLwN+n4fF3PBx/VFtVq/XJOOr+Zlpxf6eUNrAqgEoA8t5fr0A1lHx0ff7bgoxvWhDIQIECAAAEC8y3QFff251kb9zl6zZor0vLxxPkGqTn/FQlEnrR69eqfXrFixaW7du3aV3P6RZLbsWPHN1evWXNiAsMFcWtZEbRJmSSA++uM3DVfD3ecVBJvCRAgQIAAAQLzL5Bzyvl97W8h6O9/w/yWokjuPxodG3v81q1bv1Qkt5ozya1YK9vj49clSDy55qQXenLfGBoerh6ouGehV1T9CBAgQIAAAQIzEZjPW7D6q1uu0k9iMQQf1bo4MU9qvzp9XB43kxXTbfPkVqxd4+32k1Kuvd1Wtm4tT1o+dmTUq6pVT/DRrStJuQgQIECAAIHiAvN1C9aKPGn7A7ma/uziNZ7HDNPctDR1/sVVq1fvzG1NV89jUTrKeufOnVvXrFr1rdxW9tSOElhkCyVg+4WMJPbpRVZt1SVAgAABAgQITClQPAA55phjjjv+uOM+kRPxs6Ys2QL+MnU/d83q1Xe5dceOD/VaNW/dufO6lH11gpCH9lrZi5a33X755i1bDGFcFF1mBAgQIECAQC8IFO0DktuP1uXk+5PJ9NRewGm6jLlF59LhzZvPazqfJtKvnneS9fiYJtLu9TSzXi/OetVK1OsrUvkJECBAgACBRgRKtoC0cuX8vQlAzmikJj2YaCxOWb1q1dIdO3d+vNeKn1vI3p31+dC0hNy118reZHnbfX3vS/DxtOSRt14ECBAgQIAAAQIHCxQLQHLF/A054b7g4AIs9s8xeUSCkKEEIdf0mMVYbiF7R4bnvZ8WrdvXXLv9rgQfT8+n8R5bl4pLgAABAgQIECgmUCQASfDxBzlJfVGxWvVYRglCnrhy1apr0sn7Gz1W9PG0hLwrQcgpWb8/3WNlr7e47fabhjZvfk4S1fJRr6zUCBAgQIAAgQUm0HgAkuDj2Tk5/T8LzK326uQJ8E/JifxHckI/XHviDSeYMl9S3UpWteY0nFVXJp+I44/S8vE7XVk4hSJAgAABAgQIdJlAYoPmXpvWrXtA35Il1TCky5vLZQGl3G4P7dy9+z4333zzTb1Yq03r15/b7u9/TwKRo3ux/B2UeU/f+PiFQ1u2fLCDZS1CgAABAgQIEFiUAo09iDBPzl6b4KMaZlbwMdNNq9XatOqooy6e6ezdNt/Q1q0fzdPeH5gWga91W9kaKM+P+kZHHyr4aEBWkgQIECBAgMCCFmjqFqz+3JLz4VwJv++C1muicq3WyXnMxtG5remjTSTfdJq7du268dgdO/6xvXr1igQiZ2QbaLSVren6HC791OsNIyMjT9qyffv1h/veNAIECBAgQIAAgSMLNHJyuGlw8CUZnvVVR87WN9MJpCXhzK1bt/bc09In12v9+vX3G+jvf2dikHtNnt6r7/N8j+tbY2PPGtq27aperYNyEyBAgAABAgTmW6D2AOT444+/04rly6vRnI6a78r1eP5fHxoeXhAPbExA+vIEpC/J+ljRq+skrR6vHBge/tMf9vXt7tU6KDcBAgQIECBAoBsEar8F69hjjnlTrngv7iFZ61mza1etXp07sXZUnfh7+pXnhVzR6u9/3dIlS0Zu3zZ6IhBJi0c7gdO7crvVY9Ma9YFb+vpGe3pFKDwBAgQIECBAoAsEam0ByZC7j0mCH+mCei2UIuzeNzJy9+3btw8tlAqtXbt2zbIlS16QFoXfTjCyvlvrlfJ9YHR09OXbtm27tlvLqFwECBAgQIAAgV4UqDcAGRy8LieVp3UbRC5k70xFP5fHU38uw37tmVy+dqt1XD6fme8fOHl6t7xP2f8uz5j4tW4pT53lSMD6/LhXD+97aJ3pziGtm8bb7X/INvy64eHh6+eQjkUJECBAgAABAgSOIJDzv3peGzZseGI6HHfN8xBy4n5lX7v9vr7+/qtyMvmFGdRyxeDg4EMSoDwit938YuY/ZQbLFJklrSCb0goyXCSzecgkrSKbli5demE2xl9I9meWLkK2lUvzPI+3D2/d+vbSecuPAAECBAgQILDYBGoLQDYODn4uV44fNO+A7fZr+/bt+4uhG2/8wVzKkmDk9AQjf5hg5IlzSaeWZdvtVw9t3vziWtLq8kT2ByMDA0+L+8NS1Admmzq5iSIn6Lgiefzzzp07333LLbfc2EQe0iRAgAABAgQIEDhUoJYAJK0f56T147JDky83Jffsv3Hfvn0vu+GGG35UZ64JRB4UpL/IifDZdaY7m7RSt105Ub7zYjxRPu644445aunS09sDA6e32u3TEzTcOXbr8m9t/s20M/u1aQ37em63uy6Bx6c2b9585Wz8zUuAAAECBAgQIFCfQC0BSFo/Ls0J+mPrK9YsUmq3v5y+Hc/ISeV/zWKpWc+a/grnB+uNWfDYWS9cxwLt9u+lFeTP60hqoaSxbt261f39/euy7VXByKqJeo2Pj+/Lv+0JSLcvxqBtwsFfAgQIECBAgEA3Csw5AMlJ4GCGV52f/gnt9j/npPzppWBze9DGZUuXfjj53b9UnhP55Mr9V9MZ/d4Tn/0lQIAAAQIECBAg0IsC6eYwt9fAwMCz5pZCZ0vnhPyTCT6K5l11BN+xc+c5uZ3n252VuvOlcpX/Xgn2igc+nZfYkgQIECBAgAABAgQOFZhzAJImlOcemmzDU9rtT4yMjj4huYw2nNMhyVe39OwdGTlrPoKQpQMD1ehcXgQIECBAgAABAgR6VmBOAUg6n98nV+aLPvcjLR+fG2u3n5jWiFvnS31/R/d9+34u+dfa4X0G9XnmDOYxCwECBAgQIECAAIGuFZhTADLQap1XuGY/Hhsff9KWLVt2Fs73kOyqYX7z0LrzExClD3yhV6u1af369T9dKDfZECBAgAABAgQIEKhdYE4BSIaHPbv2Ek2V4Pj4c7du3bplqllKfpeRtz6XW7FeWTLPJfM4HHDJesqLAAECBAgQIEBgYQrMJQAZCMkjSrGkpeHKoS1bPlAqv5nm0xoY+LOUbetM55/rfO3+/rPnmoblCRAgQIAAAQIECMyXQMcBSPp/PCj9P+549kLTFcjtTi9sOo9O0h8aGtqVB+T9fifLdrJMOv2f1clyliFAgAABAgQIECDQDQIdByAJPh5erALt9pvT7+O6YvnNMqO0zFQPKPzmLBfrdPbj83T2oh3/Oy2o5QgQIECAAAECBAgcLNBxAJIFi50EZ9SrPzm44F33eXz8VQXLdK+CecmKAAECBAgQIECAQG0CHQcg6YBe5CQ4+XwhrR/fqa3GDSW0Y/fu96cvyFhDyR+QbFqfTj1ggg8ECBAgQIAAAQIEekSg4wAk9bt3iTq2xsffWyKfueZRPaAw/TOumGs6M1q+3b7HjOYzEwECBAgQIECAAIEuE+goAFm3bt1grsKvLlGX0Xb7wyXyqSmPj9WUznTJ3HO6GXxPgAABAgQIECBAoBsFOgpABgYG7lKiMtXwtnn9Z4m86sgjTyT8eB3pzCCNk2Ywj1kIECBAgAABAgQIdJ1ARwFIAoM1hWrylUL51JLN6Ojo12pJaPpE1k4/izkIECBAgAABAgQIdJ9ARwFIqrGySFXa7a8XyaemTLZv335rgrPGn9Se29/6N23aVGYd1GQjGQIECBAgQIAAAQKVQEcBSB6BXqT/R7vV+nGvraYEB5tLlHnfvn3HlshHHgQIECBAgAABAgTqFOgoAEkBijwBPYXbXWdli6TVbm8vkc+SJUsEICWg5UGAAAECBAgQIFCrQKcBSB7P0fwrtzMtbT6XenNIq02RZ4GMj48vqbfkUiNAgAABAgQIECDQvEBHAUjOsHc0X7Tk0N9f5FavOuvSarePrjO9I6WVW71uPdJ3phMgQIAAAQIECBDoVoGOApCCJ78ndCvcFOUqMkLVkl27bpmiDL4iQIAAAQIECBAg0JUCHQUgqcnOErVJa8IpJfKpMY/+3Jt2co3pHTGpH916a5F1cMQC+IIAAQIECBAgQIBABwIdBSBpASlzC1Zf36kd1GneFtmwYcO9Y5NBwoq89hTJRSYECBAgQIAAAQIEahToKAAZGRkZqrEMR06q1TomJ/X3OfIM3fVNf3//w0qUKK0s3y+RjzwIECBAgAABAgQI1C3QUQCSB+4NZ4SqIp2g06LwiLor3WB6pcr61QbrIGkCBAgQIECAAAECjQl0FIDsL02r9Y3GSjUp4VZf3wWTPnbz2+V97faTShQwwV8R+xJ1kQcBAgQIECBAgMDiEug8AOnrK3IVPi0gZw0ODp7U7atl48aNF6SsRR7QGIsi9t1urnwECBAgQIAAAQK9J9BxAFLyKnxGw/rNbqdNS81vFSzj1wrmJSsCBAgQIECAAAECtQl0HICkBFfVVorpEurvf/7RRx99/HSzzdf3af14TPJ+QKn8N2/e/OlSecmHAAECBAgQIECAQJ0CHQcgOQm+OgUpMhRsWhdWrl658q/qrHiNaS1NC81ra0xvyqTS8vTJzFDEfcqC+JIAAQIECBAgQIBABwIdByDJa2/+lWsFabWeu2nDhkd1UMdGF0n/lD/pa7Xu3mgmkxNvtT46+aP3BAgQIECAAAECBHpJYC4BSF9GfbqsZGXbrdbbjs2rZJ5T5bVp/foz0zrzu1PNU/d34+Pjl9edpvQIECBAgAABAgQIlBKYUwCSgOCDpQpa5ZNRpgZXrlhxSd6uKJnv4fLKAxLv2u7vvyRlSgxS5pXbr7Zt2bLlM2VykwsBAgQIECBAgACB+gXmFIAMDw9Xw8F+qf5iTZFiq/VzmwYH/2WKORr/quoQ399qXZ7YY33jmU3OoNV6x+SP3hMgQIAAAQIECBDoNYE5BSBVZcfb7bcXr3Srdc7GwcG3FM/3tgxXpEP8uxN8nFQ6/7SAlLcuXUn5ESBAgAABAgQILGiBOd8+tHbt2k3Lli790Xwo5YT8klZ//7OHhoZ2lcg/dd24bMmSS3Iv2Bkl8jsgj3b7W0ObN59ywDQfCBAgQIAAAQIECPSYwJxbQLZv3z7U7uv72HzUO60Q56cj/LXr16+/X9P551kf5yfQum5ego9ULv1t3tR0HaVPgAABAgQIECBAoGmBOQcgtxdwPp/RccqSgYFrq1uyNh1//J3rBsswu6cn+PhUmoouTtrz8jDEBHi78npd3XWTHgECBAgQIECAAIHSAnO+BWuiwJs2brwm74s9DXwi34P/5rasv0srxavSQf76g7+bzee0qjx0oL//D9PK8rjZLNfIvO32q3P71YsbSVuiBAgQIECAAAECBAoK1BaApKXgqRkZ6j0Fyz5lVglErswTyi/uGx+/amjbti9OOXO+3LRp08q+sbGHJnh5eFocnjMfncyPVMZ9IyObcqvb8JG+N50AAQIECBAgQIBArwjUFoBUFU4ryNfz5x7dVvkEIztS0c+mH8V/JCipnuA++bUuQcdDM+H+kyd2zft2+/+l9ePXu6Y8CkKAAAECBAgQIEBgDgL1BiDr1z+5b2DgfXMoj0UnCSRwunVsfPyUrVu3bpk02VsCBAgQIECAAAECPStQVyf0/QBDW7e+P6NSXd6zGt1W8FbrjwUf3bZSlIcAAQIECBAgQGAuArW2gFQF2bBhw8npvF09IX35XAq26Jdtt7+cW6+q28LGF70FAAIECBAgQIAAgQUjMFB3TXbu3PnjNatXL0u/irPqTnsxpZf+Ko/fsWPH0GKqs7oSIECAAAECBAgsfIFab8Ga4MqV+/+VkaSqYXm9OhCIXTWM8Bc6WNQiBAgQIECAAAECBLpaoPZbsCZqu3bt2o37nxw+Tw/vmyhHD/69bGh4+NyUO3GIFwECBAgQIECAAIGFJdBIC0hFVD23ImfQT85ITmMLi6y52sTr+3v27v2F5CD4aI5ZygQIECBAgAABAvMoUHsfkMl1SR+G769evfqGPNTvvMnTvT9UIBHHrvHx8UcmcPvBod+aQoAAAQIECBAgQGBhCDQagFRECUL+I53SV6ZT+pkLg6z+WlStRAlAHrdly5bP1p+6FAkQIECAAAECBAh0j0DjAUhV1Vt37Lhs9Zo1d0+Hk5/unqp3UUnGx5+zecuWD3ZRiRSFAAECBAgQIECAQCMCjfUBObi0GdXpl3Kl/yMHT1/0n9vt/zW8devbF70DAAIECBAgQIAAgUUhUCwAieZ4bjN6ToKQ6xaF7AwqGYtLM2Txy2Ywq1kIECBAgAABAgQILAiBkgFI3+bNm7eNjo09JHKXLQi9OVQiwdjrhzdvfvwckrAoAQIECBAgQIAAgZ4TaOw5INNI9G/cuPGtyfwXp5lvwX2dVo92go+XJBj7ywVXORUiQIAAAQIECBAgMI1AkU7ohylDO6NjXZKO6SMJQs45zPcLclICj12tdvuC4S1b/nFBVlClCBAgQIAAAQIECEwjMF8tIHcUa9P69ee2+/vfk2eFHH3HxAX4Ju0e14+Mjp6b53x8YwFWT5UIECBAgAABAgQIzEhg3gOQqpQbNmy460Cr9dE8K+RuMyp1r83Ubn9899695990000391rRlZcAAQIECBAgQIBAnQLzdQvWAXXYuXPnTUuXLXvzwJIlRyUiOuOAL3v4Q1o9bk1Q9fvpbP5re/bs2dvDVVF0AgQIECBAgAABArUIdEULyOSarFu37pSlAwN/lRP3J06e3kvvE3iMpr/H63bv3v2ym2+++aZeKruyEiBAgAABAgQIEGhSoOsCkInK5rasc3Jb1isSiDx4YlpP/G233z06Pv77W7du/XZPlFchCRAgQIAAAQIECBQU6NoAZMJgcHDw7HRQf2kKeu7EtC78uy8tHm8bHR191bZt277VheVTJAIECBAgQIAAAQJdIdD1AciE0qZ16x7QHhj4rQQjz56Y1gV/bxpvt/8hgcdrMrrVcBeURxEIECBAgAABAgQIdLVAzwQgE4rH5rVy+fLntFut5yUYOW1ieqm/6d+RrFuXJ/B4fR4m+L7kO1Iqb/kQIECAAAECBAgQ6HWBngtAJoOvX7/+IUv6+x+baeemr0hjo2cl5tiZPK5MHpfn78XDw8PXTy6H9wQIECBAgAABAgQIzEygpwOQyVVcu3btmqVLlz66r90+M9PvlX+npqXi5MnzzPR9Ao7rMu/X0q/jy/l7ZVo6rpzpsuYjQIAAAQIECBAgQODIAgsmADlSFTOs7/0HBgaOPdL3k6a3x8fHf2j0qkki3hIgQIAAAQIECBAgQIAAAQIECBAgQIAAAQIECBAgQIAAAQIECBAgQIAAAQIECBAgQIAAAQIECBAgQIAAAQIECBAgQIAAAQIECBAgQIAAAQIECBAgQIAAAQIECBAgQIAAAQIECBAgQIAAAQIECBAgQIAAAQIECBAgQIAAAQIECBAgQIAAAQIECBAgQIAAAQIECBAgQIAAAQIECBAgQIAAAQIECBAgQIAAAQIECBAgQIAAAQIECBAgQIAAAQIECBAgQIAAAQIECBAgQIAAAQIECBAgQIAAAQIECBAgQIAAAQIECBAgQIAAAQIECBAgQIAAAQIECBAgQIAAAQIECBAgQIAAAQIECBAgQIAAAQIECBAgQIAAAQIECBAgQIAAAQIECBAgQIAAAQIECBAgQIAAAQIECBAgQIAAAQIECBAgQIAAAQIECBAgQIAAAQIECBAgQIAAAQIECBAgQIAAAQIECBAgQIAAAQIECBAgQIAAAQIECBAgQIAAAQIECBAgQIAAAQIECBAgQIAAAQIECBAgQIAAAQIECBAgQIAAAQIECBAgQIAAAQIECBAgQIAAAQIECBAgQIAAAQIECBAgQIAAAQIECBAgQIAAAQIECBAgQIAAAQIECBAgQIAAAQIECBAgQIAAAQIECBAgQIAAAQIECBAgQIAAAQIECBAgQIAAAQIECBAgQIAAAQIECBAgQIAAAQIECBAgQIAAAQIECBAgQIAAAQIECBAgQIAAAQIECBAgQIAAAQIECBAgQIAAAQIECBAgQIAAAQIECBAgQIAAAQIECBAgQIAAAQIECBAgQIAAAQIECBAgQIAAAQIECBAgQIAAAQIECBAgQIAAAQIECBAgQIAAAQIECBAgQIAAAQIECBAgQIAAAQIECBAgQIAAAQIECBAgQIAAAQIECBAgQIAAAQIECBAgQIAAAQIECBAgQIAAAQIECBAgQIAAAQIECBAgQIAAAQIECBAgQIAAAQIECBAgQIAAAQIECBAgQIAAAQIECBAgQIAAAQIECBAgQIAAAQIECBAgQIAAAQIECBAgQIAAAQIECBAgQIAAAQIECBAgQIAAAQIECBAgQIAAAQIECBAgQIAAAQIECBAgQIAAAQIECBAgQIAAAQIECBAgQIAAAQIECBAgQIAAAQIECBAgQIAAAQIECBAgQIAAAQIECBAgQIAAAQIECBAgQIAAAQIECBAgQIAAAQIECBAgQIAAAQIECBAgQIAAAQIECBAgQIAAAQIECBAgQIAAAQIECBAgQIAAAQIECBAgQIAAAQIECBAgQIAAAQIECBAgQIAAAQIECBAgQIAAAQIECBAgQIAAAQIECBAgQIAAAQIECBAgQIAAAQIECBAgQIAAAQIECBAgQIAAAQIECBAgQIAAAQIECBAgQIAAAQIECBAgQIAAAQIECBAgQIAAAQIECBAgQIAAAQIECBAgQIAAAQIECBAgQIAAAQIECBAgQIAAAQIECBAgQIAAAQIECBAgQIAAAQIECBAgQIAAAQIECBAgQIAAAQIECBAgQIAAAQIECBAgQIAAAQIECBAgQIAAAQIECBAgQIAAAQIECBAgQIAAAQIECBAgQIAAAQIECBAgQIAAAQIECBAgQIAAAQIECBAgQIAAAQIECBAgQIAAAQIECBAgQIAAAQIECBAgQIAAAQIECBAgQIAAAQIECBAgQIAAAQIECBAgQIAAAQIECBAgQIAAAQIECBAgQIAAAQIECBAgQIAAAQIECBAgQIAAAQIECBAgQIAAAQIECBAgQIAAAQIECBAgQIAAAQIECBAgQIAAAQIECBAgQIAAAQIECBAgQIAAAQIECBAgQIAAAQIECBAgQIAAAQIECBAgQIAAAQIECBAgQIAAAQIECBAgQIAAAQIECBAgQIAAAQIECBAgQIAAAQIECBAgQIAAAQIECBAgQIAAAQIECBAgQIAAAQIECBAgQIAAAQIECBAgQIAAAQIECBAgQIAAAQIECBAgQIAAAQIECBAgQIAAAQIECBAgQIAAAQIECBAgQIAAAQIECBAgQIAAAQIECBAgQIAAAQIECBAgQIAAAQIECBAgQIAAAQIECBAgQIAAAQIECBAgQIAAAQIECBAgQIAAAQIECBAgQIAAAQIECBAgQIAAAQIECBAgQIAAAQIECBAgQIAAAQIECBAgQIAAAQIECBAgQIAAAQIECBAgQIAAAQIECBAgQIAAAQIECBAgQIAAAQIECBAgQIAAAQIECBAgQIAAAQIECBAgQIAAAQIECBAgQIAAAQIECBAgQIAAAQIECBAgQIAAAQIECBAgQIAAAQIECBAgQIAAAQIECBAgQIAAAQIECBAgQIAAAQIECBAgQIAAAQIECBAgQIAAAQIECBAgQIAAAQIECBAgQIAAAQIECBAgQIAAAQIECBAgQIAAAQIECBAgQIAAAQIECBAgQIAAAQIECBAgQIAAAQIECBAgQIAAAQIECBAgQIAAAQIECBAgQIAAAQIECBAgQIAAAQIECBAgQIAAAQIECBAgQIAAAQIECBAgQIAAAQIECBAgQIAAAQIECBAgQIAAAQIECBAgQIAAAQIECBAgQIAAAQIECBAgQIAAAQIECBAgQIAAAQIECBAgQIAAAQIECBAgQIAAAQIECBAgQIAAAQIECBAgQIAAAQIECBAgQIAAAQIECBAgQIAAAQIECBAgQIAAAQIECBAgQIAAAQIECBAgQIAAAQIECBAgQIAAAQIECBAgQIAAAQIECBAgQIAAAQIECBAgQIAAAQIECBAgQIAAAQIECBAgQIAAAQIECBAgQIAAAQIECBAgQIAAAQIECBAgQIAAAQIECBAgQIAAAQIECBAgQIAAAQIECBAgQIAAAQIECBAgQIAAAQIECBAgQIAAAQIECBAgQIAAAQIECBAgQIAAAQIECBAgQIAAAQIECBAgQIAAAQIECBAgQIAAAQIECBAgQIAAAQIECBAgQIAAAQIECBAgQIAAAQIECBAgQIAAAQIECBAgQIAAAQIECBAgQIAAAQIECBAgQIAAAQIECBAgQIAAAQIECBAgQIAAAQIECBAgQIAAAQIECBAgQIAAAQIECBAgQIAAAQIECBAgQIAAAQIECBAgQIAAAQIECBAgQIAAAQIECBAgQIAAAQIECBAgQIAAAQIECBAgQIAAAQIECBAgQIAAAQIECBAgQIAAAQIECBAgQIAAAQIECBAgQIAAAQIECBAgQIAAAQIECBAgQIAAAQIECBAgQIAAAQIECBAgQIAAAQIECBAgQIAAAQIECBAgQIAAAQIECBAgQIAAAQIECBAgQIAAAQIECBAgQIAAAQIECBAgQIAAAQIECBAgQIAAAQIECBAgQIAAAQIECBAgQIAAAQIECBAgQIAAAQIECBAgQIAAAQIECBAgQIAAAQIECBAgQIAAAQIECBAgQIAAAQIECBAgQIAAAQIECBAgQIAAAQIECBAgQIAAAQIECBAgQIAAAQIECBAgQIAAAQIECBAgQIAAAQIECBAgQIAAAQIECBAgQIAAAQIECBAgQIAAAQIECBAgQIAAAQIECBAgQIAAAQIECBAgQIAAAQIECBAgQIAAAQIECBAgQIAAAQIECBAgQIAAAQIECBAgQIAAAQIECBAgQIAAAQIECBAgQIAAAQIECBAgQIAAAQIECBAgQIAAAQIECBAgQIAAAQIECBAgQIAAAQIECBAgQIAAAQIECBAgQIAAAQIECBAgQIAAAQIECBAgQIAAAQIECBAgQIAAAQIECBAgQIAAAQIECBAgQIAAAQIECBAgQIAAAQIECBAgQIAAAQIECBAgQIAAAQIECBAgQIAAAQIECBAgQIAAAQIECBAgQIAAAQIECBAgQIAAAQIECBAgQIAAAQIECBAgQIAAAQIECBAgQIAAAQIECBAgQIAAAQIECBAgQIAAAQIECBAgQIAAAQIECBAgQIAAAQIECBAgQIAAAQIECBAgQIAAAQIECBAgQIAAAQIECBAgQIAAAQIECBAgQIAAAQIECBAgQIAAAQIECBAgQIAAAQIECBAgQIAAAQIECBAgQIAAAQIECBAgQIAAgW4X+P8BCZbQ+YVIHtUAAAAASUVORK5CYII=;" vertex="1" parent="Qvlqy7RKEXM_z3_F6WAx-30">
          <mxGeometry x="72.41379310344826" width="51.231527093596064" height="51.231527093596064" as="geometry" />
        </mxCell>
        <mxCell id="Qvlqy7RKEXM_z3_F6WAx-14" value="&lt;font style=&quot;font-size: 10px;&quot;&gt;Aviation Stack&amp;nbsp;&lt;/font&gt;&lt;div&gt;&lt;font style=&quot;font-size: 10px;&quot;&gt;Topic&lt;/font&gt;&lt;/div&gt;" style="outlineConnect=0;dashed=0;verticalLabelPosition=bottom;verticalAlign=top;align=center;html=1;shape=mxgraph.aws3.topic;fillColor=#5294CF;gradientColor=none;" vertex="1" parent="Qvlqy7RKEXM_z3_F6WAx-30">
          <mxGeometry x="27.586206896551744" y="45.882352941176464" width="34.13793103448276" height="50.470588235294116" as="geometry" />
        </mxCell>
        <mxCell id="Qvlqy7RKEXM_z3_F6WAx-21" value="&lt;font style=&quot;font-size: 10px;&quot;&gt;OpenSky&lt;/font&gt;&lt;div&gt;&lt;font style=&quot;font-size: 10px;&quot;&gt;Topic&lt;/font&gt;&lt;/div&gt;" style="outlineConnect=0;dashed=0;verticalLabelPosition=bottom;verticalAlign=top;align=center;html=1;shape=mxgraph.aws3.topic;fillColor=#5294CF;gradientColor=none;" vertex="1" parent="Qvlqy7RKEXM_z3_F6WAx-30">
          <mxGeometry x="137.9310344827586" y="45.882352941176464" width="34.13793103448276" height="50.470588235294116" as="geometry" />
        </mxCell>
        <mxCell id="Qvlqy7RKEXM_z3_F6WAx-33" value="" style="endArrow=none;html=1;rounded=0;" edge="1" parent="1">
          <mxGeometry width="50" height="50" relative="1" as="geometry">
            <mxPoint x="620" y="340" as="sourcePoint" />
            <mxPoint x="650" y="340" as="targetPoint" />
          </mxGeometry>
        </mxCell>
        <mxCell id="Qvlqy7RKEXM_z3_F6WAx-34" value="" style="endArrow=classic;html=1;rounded=0;" edge="1" parent="1">
          <mxGeometry width="50" height="50" relative="1" as="geometry">
            <mxPoint x="650" y="340" as="sourcePoint" />
            <mxPoint x="750" y="190" as="targetPoint" />
            <Array as="points">
              <mxPoint x="650" y="190" />
            </Array>
          </mxGeometry>
        </mxCell>
        <mxCell id="Qvlqy7RKEXM_z3_F6WAx-35" value="" style="endArrow=classic;html=1;rounded=0;" edge="1" parent="1">
          <mxGeometry width="50" height="50" relative="1" as="geometry">
            <mxPoint x="650" y="340" as="sourcePoint" />
            <mxPoint x="750" y="480" as="targetPoint" />
            <Array as="points">
              <mxPoint x="650" y="480" />
            </Array>
          </mxGeometry>
        </mxCell>
        <mxCell id="Qvlqy7RKEXM_z3_F6WAx-41" value="" style="rounded=0;whiteSpace=wrap;html=1;strokeColor=none;" vertex="1" parent="1">
          <mxGeometry x="1140.5" y="70" width="69" height="20" as="geometry" />
        </mxCell>
        <mxCell id="Qvlqy7RKEXM_z3_F6WAx-63" value="" style="group" vertex="1" connectable="0" parent="1">
          <mxGeometry x="925" y="32" width="506" height="299" as="geometry" />
        </mxCell>
        <mxCell id="Qvlqy7RKEXM_z3_F6WAx-45" value="" style="rounded=0;whiteSpace=wrap;html=1;dashed=1;movable=1;resizable=1;rotatable=1;deletable=1;editable=1;locked=0;connectable=1;" vertex="1" parent="Qvlqy7RKEXM_z3_F6WAx-63">
          <mxGeometry y="39" width="500" height="260" as="geometry" />
        </mxCell>
        <mxCell id="Qvlqy7RKEXM_z3_F6WAx-62" value="" style="rounded=0;whiteSpace=wrap;html=1;strokeColor=none;" vertex="1" parent="Qvlqy7RKEXM_z3_F6WAx-63">
          <mxGeometry x="222" y="37" width="58.75" height="12" as="geometry" />
        </mxCell>
        <mxCell id="Qvlqy7RKEXM_z3_F6WAx-36" value="&lt;font style=&quot;font-size: 10px;&quot;&gt;PostgreSQL&amp;nbsp;&lt;/font&gt;&lt;div&gt;&lt;font style=&quot;font-size: 10px;&quot;&gt;Database&lt;/font&gt;&lt;/div&gt;" style="image;aspect=fixed;html=1;points=[];align=center;fontSize=12;image=img/lib/azure2/databases/Azure_Database_PostgreSQL_Server.svg;imageBackground=default;movable=1;resizable=1;rotatable=1;deletable=1;editable=1;locked=0;connectable=1;" vertex="1" parent="Qvlqy7RKEXM_z3_F6WAx-63">
          <mxGeometry x="230" width="40" height="53.33" as="geometry" />
        </mxCell>
        <mxCell id="Qvlqy7RKEXM_z3_F6WAx-93" value="" style="rounded=0;whiteSpace=wrap;html=1;strokeColor=none;" vertex="1" parent="Qvlqy7RKEXM_z3_F6WAx-63">
          <mxGeometry x="493" y="192" width="13" height="16" as="geometry" />
        </mxCell>
        <mxCell id="Qvlqy7RKEXM_z3_F6WAx-42" value="&lt;font style=&quot;font-size: 10px;&quot;&gt;&lt;b&gt;Bronze Layer&lt;/b&gt;&lt;/font&gt;" style="rounded=0;whiteSpace=wrap;html=1;fillColor=#ffe6cc;strokeColor=#d79b00;" vertex="1" parent="1">
          <mxGeometry x="951" y="127" width="120" height="20" as="geometry" />
        </mxCell>
        <mxCell id="Qvlqy7RKEXM_z3_F6WAx-60" style="edgeStyle=orthogonalEdgeStyle;rounded=0;orthogonalLoop=1;jettySize=auto;html=1;entryX=0;entryY=0.5;entryDx=0;entryDy=0;" edge="1" parent="1" source="Qvlqy7RKEXM_z3_F6WAx-43" target="Qvlqy7RKEXM_z3_F6WAx-48">
          <mxGeometry relative="1" as="geometry" />
        </mxCell>
        <mxCell id="Qvlqy7RKEXM_z3_F6WAx-43" value="&lt;div style=&quot;line-height: 110%;&quot;&gt;&lt;font style=&quot;font-size: 9px; line-height: 110%;&quot;&gt;- Raw JSON data ingested from Kafka Topic&lt;/font&gt;&lt;div&gt;&lt;font style=&quot;font-size: 9px; line-height: 110%;&quot;&gt;&lt;br&gt;&lt;/font&gt;&lt;/div&gt;&lt;div&gt;&lt;font style=&quot;font-size: 9px; line-height: 110%;&quot;&gt;- Minimal schema&lt;/font&gt;&lt;/div&gt;&lt;div&gt;&lt;font style=&quot;font-size: 9px; line-height: 110%;&quot;&gt;- No validation or cleaning&lt;/font&gt;&lt;/div&gt;&lt;div&gt;&lt;font style=&quot;font-size: 9px; line-height: 110%;&quot;&gt;&lt;br&gt;&lt;/font&gt;&lt;/div&gt;&lt;div&gt;&lt;font style=&quot;font-size: 9px; line-height: 110%;&quot;&gt;- Open table per source API&lt;/font&gt;&lt;/div&gt;&lt;/div&gt;" style="rounded=0;whiteSpace=wrap;html=1;fillColor=#ffe6cc;strokeColor=#d79b00;" vertex="1" parent="1">
          <mxGeometry x="951" y="157" width="120" height="150" as="geometry" />
        </mxCell>
        <mxCell id="Qvlqy7RKEXM_z3_F6WAx-47" value="&lt;span style=&quot;font-size: 10px;&quot;&gt;&lt;b&gt;Silver Layer&lt;/b&gt;&lt;/span&gt;" style="rounded=0;whiteSpace=wrap;html=1;fillColor=#f5f5f5;strokeColor=#666666;fontColor=#333333;" vertex="1" parent="1">
          <mxGeometry x="1115" y="127" width="120" height="20" as="geometry" />
        </mxCell>
        <mxCell id="Qvlqy7RKEXM_z3_F6WAx-61" style="edgeStyle=orthogonalEdgeStyle;rounded=0;orthogonalLoop=1;jettySize=auto;html=1;entryX=0;entryY=0.5;entryDx=0;entryDy=0;" edge="1" parent="1" source="Qvlqy7RKEXM_z3_F6WAx-48" target="Qvlqy7RKEXM_z3_F6WAx-59">
          <mxGeometry relative="1" as="geometry" />
        </mxCell>
        <mxCell id="Qvlqy7RKEXM_z3_F6WAx-48" value="&lt;span style=&quot;font-weight: normal;&quot;&gt;&lt;font style=&quot;font-size: 9px;&quot;&gt;- Cleaned and parsed records&lt;/font&gt;&lt;/span&gt;&lt;div&gt;&lt;span style=&quot;font-weight: normal;&quot;&gt;&lt;font style=&quot;font-size: 9px;&quot;&gt;&lt;br&gt;&lt;/font&gt;&lt;/span&gt;&lt;/div&gt;&lt;div&gt;&lt;span style=&quot;font-weight: normal;&quot;&gt;&lt;font style=&quot;font-size: 9px;&quot;&gt;- Schema applied, nulls/&lt;/font&gt;&lt;/span&gt;&lt;/div&gt;&lt;div&gt;&lt;span style=&quot;font-weight: normal;&quot;&gt;&lt;font style=&quot;font-size: 9px;&quot;&gt;types handles&lt;/font&gt;&lt;/span&gt;&lt;/div&gt;&lt;div&gt;&lt;span style=&quot;font-weight: normal;&quot;&gt;&lt;font style=&quot;font-size: 9px;&quot;&gt;&lt;br&gt;&lt;/font&gt;&lt;/span&gt;&lt;/div&gt;&lt;div&gt;&lt;span style=&quot;font-weight: 400;&quot;&gt;&lt;font style=&quot;font-size: 9px;&quot;&gt;- Duplicate removal, basic deduplication&lt;/font&gt;&lt;/span&gt;&lt;/div&gt;" style="rounded=0;whiteSpace=wrap;html=1;fillColor=#f5f5f5;strokeColor=#666666;fontColor=#333333;fontStyle=1" vertex="1" parent="1">
          <mxGeometry x="1115" y="157" width="120" height="150" as="geometry" />
        </mxCell>
        <mxCell id="Qvlqy7RKEXM_z3_F6WAx-58" value="&lt;span style=&quot;font-size: 10px;&quot;&gt;&lt;b&gt;Gold Layer&lt;/b&gt;&lt;/span&gt;" style="rounded=0;whiteSpace=wrap;html=1;fillColor=#fff2cc;strokeColor=#d6b656;" vertex="1" parent="1">
          <mxGeometry x="1279" y="127" width="120" height="20" as="geometry" />
        </mxCell>
        <mxCell id="Qvlqy7RKEXM_z3_F6WAx-89" style="edgeStyle=orthogonalEdgeStyle;rounded=0;orthogonalLoop=1;jettySize=auto;html=1;entryX=0;entryY=0.5;entryDx=0;entryDy=0;" edge="1" parent="1" source="Qvlqy7RKEXM_z3_F6WAx-59" target="Qvlqy7RKEXM_z3_F6WAx-73">
          <mxGeometry relative="1" as="geometry" />
        </mxCell>
        <mxCell id="Qvlqy7RKEXM_z3_F6WAx-90" style="edgeStyle=orthogonalEdgeStyle;rounded=0;orthogonalLoop=1;jettySize=auto;html=1;" edge="1" parent="1" source="Qvlqy7RKEXM_z3_F6WAx-59">
          <mxGeometry relative="1" as="geometry">
            <mxPoint x="1520.6" y="232" as="targetPoint" />
          </mxGeometry>
        </mxCell>
        <mxCell id="Qvlqy7RKEXM_z3_F6WAx-91" style="edgeStyle=orthogonalEdgeStyle;rounded=0;orthogonalLoop=1;jettySize=auto;html=1;entryX=0;entryY=0.5;entryDx=0;entryDy=0;" edge="1" parent="1" source="Qvlqy7RKEXM_z3_F6WAx-59" target="Qvlqy7RKEXM_z3_F6WAx-80">
          <mxGeometry relative="1" as="geometry" />
        </mxCell>
        <mxCell id="Qvlqy7RKEXM_z3_F6WAx-59" value="&lt;font style=&quot;font-size: 9px;&quot;&gt;- Modeled facts &amp;amp; dimensions (snowflake schema)&lt;/font&gt;&lt;div&gt;&lt;font style=&quot;font-size: 9px;&quot;&gt;&lt;br&gt;&lt;/font&gt;&lt;/div&gt;&lt;div&gt;&lt;font style=&quot;font-size: 9px;&quot;&gt;- Optimized for BI &amp;amp; ML&lt;/font&gt;&lt;/div&gt;&lt;div&gt;&lt;font style=&quot;font-size: 9px;&quot;&gt;&lt;br&gt;&lt;/font&gt;&lt;/div&gt;&lt;div&gt;&lt;font style=&quot;font-size: 9px;&quot;&gt;- Includes aggregated &amp;amp; derived metrics (e.g., avg delay per airline)&lt;/font&gt;&lt;/div&gt;" style="rounded=0;whiteSpace=wrap;html=1;fillColor=#fff2cc;strokeColor=#d6b656;" vertex="1" parent="1">
          <mxGeometry x="1279" y="157" width="120" height="150" as="geometry" />
        </mxCell>
        <mxCell id="Qvlqy7RKEXM_z3_F6WAx-71" value="" style="shape=mxgraph.signs.nature.snowflake;html=1;pointerEvents=1;fillColor=#000000;strokeColor=none;verticalLabelPosition=bottom;verticalAlign=top;align=center;" vertex="1" parent="1">
          <mxGeometry x="1381.91" y="158" width="15.09" height="17" as="geometry" />
        </mxCell>
        <mxCell id="Qvlqy7RKEXM_z3_F6WAx-92" value="" style="group" vertex="1" connectable="0" parent="1">
          <mxGeometry x="1522" y="41" width="128" height="384" as="geometry" />
        </mxCell>
        <mxCell id="Qvlqy7RKEXM_z3_F6WAx-73" value="" style="whiteSpace=wrap;html=1;aspect=fixed;strokeColor=none;" vertex="1" parent="Qvlqy7RKEXM_z3_F6WAx-92">
          <mxGeometry width="128" height="128" as="geometry" />
        </mxCell>
        <mxCell id="Qvlqy7RKEXM_z3_F6WAx-75" value="BI &amp;amp; Reporting&lt;div&gt;&lt;br&gt;&lt;/div&gt;" style="verticalLabelPosition=bottom;sketch=0;aspect=fixed;html=1;verticalAlign=top;strokeColor=none;align=center;outlineConnect=0;shape=mxgraph.citrix.reporting;" vertex="1" parent="Qvlqy7RKEXM_z3_F6WAx-92">
          <mxGeometry x="33.25" y="21" width="61.5" height="69" as="geometry" />
        </mxCell>
        <mxCell id="Qvlqy7RKEXM_z3_F6WAx-78" value="" style="whiteSpace=wrap;html=1;aspect=fixed;strokeColor=none;" vertex="1" parent="Qvlqy7RKEXM_z3_F6WAx-92">
          <mxGeometry y="128" width="128" height="128" as="geometry" />
        </mxCell>
        <mxCell id="Qvlqy7RKEXM_z3_F6WAx-79" value="Ad-hoc&amp;nbsp;&lt;div&gt;SQL Queries&lt;/div&gt;" style="image;aspect=fixed;perimeter=ellipsePerimeter;html=1;align=center;shadow=0;dashed=0;spacingTop=3;image=img/lib/active_directory/sql_server.svg;" vertex="1" parent="Qvlqy7RKEXM_z3_F6WAx-92">
          <mxGeometry x="35.8900000000001" y="139" width="56.21" height="73" as="geometry" />
        </mxCell>
        <mxCell id="Qvlqy7RKEXM_z3_F6WAx-80" value="" style="whiteSpace=wrap;html=1;aspect=fixed;strokeColor=none;" vertex="1" parent="Qvlqy7RKEXM_z3_F6WAx-92">
          <mxGeometry y="256" width="128" height="128" as="geometry" />
        </mxCell>
        <mxCell id="Qvlqy7RKEXM_z3_F6WAx-81" value="Predictive Modeling" style="outlineConnect=0;dashed=0;verticalLabelPosition=bottom;verticalAlign=top;align=center;html=1;shape=mxgraph.aws3.machine_learning;fillColor=#2E73B8;gradientColor=none;" vertex="1" parent="Qvlqy7RKEXM_z3_F6WAx-92">
          <mxGeometry x="33.25" y="274" width="62.25" height="75.68" as="geometry" />
        </mxCell>
      </root>
    </mxGraphModel>
  </diagram>
</mxfile>
